<svg width="844" height="490" viewBox="0 0 844 490" fill="none" xmlns="http://www.w3.org/2000/svg">
<path fill-rule="evenodd" clip-rule="evenodd" d="M490 0V489.5H0V478.5L422 479.379C422.192 478.062 422.401 476.769 422.628 475.5L56 396.5L57 390.5L423.645 470.5C424.131 468.379 424.675 466.33 425.278 464.353L78 321.5L81 316.5L426.875 459.653C427.752 457.326 428.725 455.11 429.797 453L117 246.5L121 241.5L432.338 448.5C433.703 446.318 435.197 444.267 436.826 442.343L172 177.5L176 173.5L440.629 438.314C442.302 436.723 444.091 435.237 446 433.853L239 121.5L244 117.5L450.346 431L455.5 428L307.5 84L312 81.5L461 425.932C462.921 425.208 464.92 424.542 467 423.931L388 57L394 55.5L472 422.606C474.556 421.998 477.221 421.463 480 421V0H490ZM480 479.5L432 479.4C433.167 464.1 444.4 433.1 480 431.5V479.5Z" fill="#0188CC"/>
<path d="M552.363 77V47.5918H562.781C573.227 47.5918 578.449 52.3701 578.449 61.9268C578.449 66.5068 577.021 70.1641 574.163 72.8984C571.319 75.6328 567.525 77 562.781 77H552.363ZM558.987 52.9854V71.627H562.269C565.14 71.627 567.389 70.7656 569.016 69.043C570.656 67.3203 571.477 64.9756 571.477 62.0088C571.477 59.2061 570.663 57.0049 569.036 55.4053C567.423 53.792 565.153 52.9854 562.228 52.9854H558.987Z" fill="#333333"/>
<path d="M589.954 77H583.33V47.5918H589.954V77Z" fill="#333333"/>
<path d="M621.331 77H613.723L609.149 69.4326C608.808 68.8584 608.479 68.3457 608.165 67.8945C607.851 67.4434 607.529 67.0605 607.201 66.7461C606.887 66.418 606.552 66.1719 606.196 66.0078C605.854 65.8301 605.479 65.7412 605.068 65.7412H603.284V77H596.66V47.5918H607.16C614.297 47.5918 617.865 50.2578 617.865 55.5898C617.865 56.6152 617.708 57.5654 617.394 58.4404C617.079 59.3018 616.635 60.0811 616.061 60.7783C615.486 61.4756 614.789 62.0771 613.969 62.583C613.162 63.0889 612.26 63.4854 611.262 63.7725V63.8545C611.699 63.9912 612.123 64.2168 612.533 64.5312C612.943 64.832 613.34 65.1875 613.723 65.5977C614.105 66.0078 614.468 66.4521 614.81 66.9307C615.165 67.3955 615.486 67.8535 615.773 68.3047L621.331 77ZM603.284 52.5547V60.7373H606.155C607.577 60.7373 608.719 60.3271 609.58 59.5068C610.455 58.6729 610.893 57.6406 610.893 56.4102C610.893 53.8398 609.354 52.5547 606.278 52.5547H603.284Z" fill="#333333"/>
<path d="M641.736 77H624.1V47.5918H641.06V52.9854H630.724V59.5273H640.342V64.9004H630.724V71.627H641.736V77Z" fill="#333333"/>
<path d="M667.535 75.9541C665.389 76.9932 662.586 77.5127 659.127 77.5127C654.615 77.5127 651.067 76.1865 648.483 73.5342C645.899 70.8818 644.607 67.3477 644.607 62.9316C644.607 58.2285 646.057 54.4141 648.955 51.4883C651.867 48.5625 655.641 47.0996 660.275 47.0996C663.146 47.0996 665.566 47.4619 667.535 48.1865V54.5645C665.566 53.3887 663.324 52.8008 660.809 52.8008C658.047 52.8008 655.818 53.6689 654.123 55.4053C652.428 57.1416 651.58 59.4932 651.58 62.46C651.58 65.3037 652.38 67.5732 653.979 69.2686C655.579 70.9502 657.732 71.791 660.439 71.791C663.023 71.791 665.389 71.1621 667.535 69.9043V75.9541Z" fill="#333333"/>
<path d="M693.313 52.9854H684.926V77H678.281V52.9854H669.935V47.5918H693.313V52.9854Z" fill="#333333"/>
<path d="M708.141 77.5127C703.93 77.5127 700.498 76.1455 697.846 73.4111C695.193 70.6631 693.867 67.0879 693.867 62.6855C693.867 58.0371 695.214 54.2773 697.907 51.4062C700.601 48.5352 704.169 47.0996 708.612 47.0996C712.81 47.0996 716.2 48.4736 718.784 51.2217C721.382 53.9697 722.681 57.5928 722.681 62.0908C722.681 66.7119 721.334 70.4375 718.641 73.2676C715.961 76.0977 712.461 77.5127 708.141 77.5127ZM708.428 52.8008C706.104 52.8008 704.258 53.6758 702.891 55.4258C701.523 57.1621 700.84 59.4658 700.84 62.3369C700.84 65.249 701.523 67.5527 702.891 69.248C704.258 70.9434 706.049 71.791 708.264 71.791C710.547 71.791 712.358 70.9707 713.698 69.3301C715.038 67.6758 715.708 65.3857 715.708 62.46C715.708 59.4111 715.059 57.0391 713.76 55.3438C712.461 53.6484 710.684 52.8008 708.428 52.8008Z" fill="#333333"/>
<path d="M752.253 77H744.645L740.071 69.4326C739.729 68.8584 739.401 68.3457 739.087 67.8945C738.772 67.4434 738.451 67.0605 738.123 66.7461C737.809 66.418 737.474 66.1719 737.118 66.0078C736.776 65.8301 736.4 65.7412 735.99 65.7412H734.206V77H727.582V47.5918H738.082C745.219 47.5918 748.787 50.2578 748.787 55.5898C748.787 56.6152 748.63 57.5654 748.315 58.4404C748.001 59.3018 747.557 60.0811 746.982 60.7783C746.408 61.4756 745.711 62.0771 744.891 62.583C744.084 63.0889 743.182 63.4854 742.184 63.7725V63.8545C742.621 63.9912 743.045 64.2168 743.455 64.5312C743.865 64.832 744.262 65.1875 744.645 65.5977C745.027 66.0078 745.39 66.4521 745.731 66.9307C746.087 67.3955 746.408 67.8535 746.695 68.3047L752.253 77ZM734.206 52.5547V60.7373H737.077C738.499 60.7373 739.641 60.3271 740.502 59.5068C741.377 58.6729 741.814 57.6406 741.814 56.4102C741.814 53.8398 740.276 52.5547 737.2 52.5547H734.206Z" fill="#333333"/>
<path d="M776.78 47.5918L767.203 66.541V77H760.579V66.6641L751.248 47.5918H758.815L763.553 58.5635C763.635 58.7686 763.86 59.5684 764.229 60.9629H764.312C764.489 59.9785 764.701 59.2061 764.947 58.6455L769.767 47.5918H776.78Z" fill="#333333"/>
<path d="M804.158 77.5127C799.947 77.5127 796.516 76.1455 793.863 73.4111C791.211 70.6631 789.885 67.0879 789.885 62.6855C789.885 58.0371 791.231 54.2773 793.925 51.4062C796.618 48.5352 800.187 47.0996 804.63 47.0996C808.827 47.0996 812.218 48.4736 814.802 51.2217C817.399 53.9697 818.698 57.5928 818.698 62.0908C818.698 66.7119 817.352 70.4375 814.658 73.2676C811.979 76.0977 808.479 77.5127 804.158 77.5127ZM804.445 52.8008C802.121 52.8008 800.275 53.6758 798.908 55.4258C797.541 57.1621 796.857 59.4658 796.857 62.3369C796.857 65.249 797.541 67.5527 798.908 69.248C800.275 70.9434 802.066 71.791 804.281 71.791C806.564 71.791 808.376 70.9707 809.716 69.3301C811.056 67.6758 811.726 65.3857 811.726 62.46C811.726 59.4111 811.076 57.0391 809.777 55.3438C808.479 53.6484 806.701 52.8008 804.445 52.8008Z" fill="#333333"/>
<path d="M840.601 52.9854H830.224V60.2041H839.76V65.5771H830.224V77H823.6V47.5918H840.601V52.9854Z" fill="#333333"/>
<path d="M558.987 133H552.363V103.592H558.987V133Z" fill="#333333"/>
<path d="M592.148 133H585.463L573.343 114.522C572.632 113.442 572.14 112.629 571.866 112.082H571.784C571.894 113.121 571.948 114.707 571.948 116.84V133H565.693V103.592H572.83L584.499 121.495C585.032 122.302 585.524 123.102 585.976 123.895H586.058C585.948 123.211 585.894 121.864 585.894 119.854V103.592H592.148V133Z" fill="#333333"/>
<path d="M615.876 108.985H605.499V116.204H615.035V121.577H605.499V133H598.875V103.592H615.876V108.985Z" fill="#333333"/>
<path d="M633.164 133.513C628.953 133.513 625.521 132.146 622.869 129.411C620.217 126.663 618.891 123.088 618.891 118.686C618.891 114.037 620.237 110.277 622.931 107.406C625.624 104.535 629.192 103.1 633.636 103.1C637.833 103.1 641.224 104.474 643.808 107.222C646.405 109.97 647.704 113.593 647.704 118.091C647.704 122.712 646.357 126.438 643.664 129.268C640.984 132.098 637.484 133.513 633.164 133.513ZM633.451 108.801C631.127 108.801 629.281 109.676 627.914 111.426C626.547 113.162 625.863 115.466 625.863 118.337C625.863 121.249 626.547 123.553 627.914 125.248C629.281 126.943 631.072 127.791 633.287 127.791C635.57 127.791 637.382 126.971 638.722 125.33C640.062 123.676 640.731 121.386 640.731 118.46C640.731 115.411 640.082 113.039 638.783 111.344C637.484 109.648 635.707 108.801 633.451 108.801Z" fill="#333333"/>
<path d="M677.276 133H669.668L665.095 125.433C664.753 124.858 664.425 124.346 664.11 123.895C663.796 123.443 663.475 123.061 663.146 122.746C662.832 122.418 662.497 122.172 662.142 122.008C661.8 121.83 661.424 121.741 661.014 121.741H659.229V133H652.605V103.592H663.105C670.242 103.592 673.811 106.258 673.811 111.59C673.811 112.615 673.653 113.565 673.339 114.44C673.024 115.302 672.58 116.081 672.006 116.778C671.432 117.476 670.734 118.077 669.914 118.583C669.107 119.089 668.205 119.485 667.207 119.772V119.854C667.645 119.991 668.068 120.217 668.479 120.531C668.889 120.832 669.285 121.188 669.668 121.598C670.051 122.008 670.413 122.452 670.755 122.931C671.11 123.396 671.432 123.854 671.719 124.305L677.276 133ZM659.229 108.555V116.737H662.101C663.522 116.737 664.664 116.327 665.525 115.507C666.4 114.673 666.838 113.641 666.838 112.41C666.838 109.84 665.3 108.555 662.224 108.555H659.229Z" fill="#333333"/>
<path d="M713.555 133H707.013V115.404C707.013 113.504 707.095 111.405 707.259 109.108H707.095C706.753 110.913 706.445 112.212 706.172 113.005L699.281 133H693.867L686.854 113.21C686.662 112.677 686.354 111.31 685.931 109.108H685.746C685.924 112.007 686.013 114.55 686.013 116.737V133H680.045V103.592H689.745L695.754 121.023C696.232 122.418 696.581 123.819 696.8 125.228H696.923C697.292 123.601 697.682 122.186 698.092 120.982L704.101 103.592H713.555V133Z" fill="#333333"/>
<path d="M746.101 133H738.882L736.79 126.458H726.331L724.26 133H717.082L727.787 103.592H735.642L746.101 133ZM735.272 121.372L732.114 111.487C731.882 110.749 731.718 109.867 731.622 108.842H731.458C731.39 109.703 731.219 110.558 730.945 111.405L727.746 121.372H735.272Z" fill="#333333"/>
<path d="M767.47 108.985H759.082V133H752.438V108.985H744.091V103.592H767.47V108.985Z" fill="#333333"/>
<path d="M778.052 133H771.428V103.592H778.052V133Z" fill="#333333"/>
<path d="M797.186 133.513C792.975 133.513 789.543 132.146 786.891 129.411C784.238 126.663 782.912 123.088 782.912 118.686C782.912 114.037 784.259 110.277 786.952 107.406C789.646 104.535 793.214 103.1 797.657 103.1C801.854 103.1 805.245 104.474 807.829 107.222C810.427 109.97 811.726 113.593 811.726 118.091C811.726 122.712 810.379 126.438 807.686 129.268C805.006 132.098 801.506 133.513 797.186 133.513ZM797.473 108.801C795.148 108.801 793.303 109.676 791.936 111.426C790.568 113.162 789.885 115.466 789.885 118.337C789.885 121.249 790.568 123.553 791.936 125.248C793.303 126.943 795.094 127.791 797.309 127.791C799.592 127.791 801.403 126.971 802.743 125.33C804.083 123.676 804.753 121.386 804.753 118.46C804.753 115.411 804.104 113.039 802.805 111.344C801.506 109.648 799.729 108.801 797.473 108.801Z" fill="#333333"/>
<path d="M843.082 133H836.396L824.276 114.522C823.565 113.442 823.073 112.629 822.8 112.082H822.718C822.827 113.121 822.882 114.707 822.882 116.84V133H816.627V103.592H823.764L835.433 121.495C835.966 122.302 836.458 123.102 836.909 123.895H836.991C836.882 123.211 836.827 121.864 836.827 119.854V103.592H843.082V133Z" fill="#333333"/>
<path d="M564.791 189.513C560.58 189.513 557.148 188.146 554.496 185.411C551.844 182.663 550.518 179.088 550.518 174.686C550.518 170.037 551.864 166.277 554.558 163.406C557.251 160.535 560.819 159.1 565.263 159.1C569.46 159.1 572.851 160.474 575.435 163.222C578.032 165.97 579.331 169.593 579.331 174.091C579.331 178.712 577.984 182.438 575.291 185.268C572.611 188.098 569.111 189.513 564.791 189.513ZM565.078 164.801C562.754 164.801 560.908 165.676 559.541 167.426C558.174 169.162 557.49 171.466 557.49 174.337C557.49 177.249 558.174 179.553 559.541 181.248C560.908 182.943 562.699 183.791 564.914 183.791C567.197 183.791 569.009 182.971 570.349 181.33C571.688 179.676 572.358 177.386 572.358 174.46C572.358 171.411 571.709 169.039 570.41 167.344C569.111 165.648 567.334 164.801 565.078 164.801Z" fill="#333333"/>
<path d="M601.233 164.985H590.856V172.204H600.393V177.577H590.856V189H584.232V159.592H601.233V164.985Z" fill="#333333"/>
<path d="M638.353 164.985H629.965V189H623.32V164.985H614.974V159.592H638.353V164.985Z" fill="#333333"/>
<path d="M667.761 189H661.116V177.023H648.935V189H642.311V159.592H648.935V171.322H661.116V159.592H667.761V189Z" fill="#333333"/>
<path d="M692.145 189H674.508V159.592H691.468V164.985H681.132V171.527H690.75V176.9H681.132V183.627H692.145V189Z" fill="#333333"/>
<path d="M573.445 243.954C571.299 244.993 568.496 245.513 565.037 245.513C560.525 245.513 556.978 244.187 554.394 241.534C551.81 238.882 550.518 235.348 550.518 230.932C550.518 226.229 551.967 222.414 554.865 219.488C557.777 216.562 561.551 215.1 566.186 215.1C569.057 215.1 571.477 215.462 573.445 216.187V222.564C571.477 221.389 569.234 220.801 566.719 220.801C563.957 220.801 561.729 221.669 560.033 223.405C558.338 225.142 557.49 227.493 557.49 230.46C557.49 233.304 558.29 235.573 559.89 237.269C561.489 238.95 563.643 239.791 566.35 239.791C568.934 239.791 571.299 239.162 573.445 237.904V243.954Z" fill="#333333"/>
<path d="M596.209 245H578.572V215.592H595.532V220.985H585.196V227.527H594.814V232.9H585.196V239.627H596.209V245Z" fill="#333333"/>
<path d="M627.381 245H620.695L608.575 226.522C607.864 225.442 607.372 224.629 607.099 224.082H607.017C607.126 225.121 607.181 226.707 607.181 228.84V245H600.926V215.592H608.062L619.731 233.495C620.265 234.302 620.757 235.102 621.208 235.895H621.29C621.181 235.211 621.126 233.864 621.126 231.854V215.592H627.381V245Z" fill="#333333"/>
<path d="M654.759 220.985H646.371V245H639.727V220.985H631.38V215.592H654.759V220.985Z" fill="#333333"/>
<path d="M683.388 245H675.779L671.206 237.433C670.864 236.858 670.536 236.346 670.222 235.895C669.907 235.443 669.586 235.061 669.258 234.746C668.943 234.418 668.608 234.172 668.253 234.008C667.911 233.83 667.535 233.741 667.125 233.741H665.341V245H658.717V215.592H669.217C676.354 215.592 679.922 218.258 679.922 223.59C679.922 224.615 679.765 225.565 679.45 226.44C679.136 227.302 678.691 228.081 678.117 228.778C677.543 229.476 676.846 230.077 676.025 230.583C675.219 231.089 674.316 231.485 673.318 231.772V231.854C673.756 231.991 674.18 232.217 674.59 232.531C675 232.832 675.396 233.188 675.779 233.598C676.162 234.008 676.524 234.452 676.866 234.931C677.222 235.396 677.543 235.854 677.83 236.305L683.388 245ZM665.341 220.555V228.737H668.212C669.634 228.737 670.775 228.327 671.637 227.507C672.512 226.673 672.949 225.641 672.949 224.41C672.949 221.84 671.411 220.555 668.335 220.555H665.341Z" fill="#333333"/>
<path d="M712.017 245H704.798L702.706 238.458H692.247L690.176 245H682.998L693.703 215.592H701.558L712.017 245ZM701.188 233.372L698.03 223.487C697.798 222.749 697.634 221.867 697.538 220.842H697.374C697.306 221.703 697.135 222.558 696.861 223.405L693.662 233.372H701.188Z" fill="#333333"/>
<path d="M733.201 245H715.688V215.592H722.312V239.627H733.201V245Z" fill="#333333"/>
<path d="M552.363 301V271.592H563.068C566.35 271.592 568.872 272.193 570.636 273.396C572.399 274.6 573.281 276.295 573.281 278.482C573.281 280.068 572.741 281.456 571.661 282.646C570.595 283.835 569.228 284.662 567.56 285.127V285.209C569.651 285.469 571.319 286.241 572.563 287.526C573.821 288.812 574.45 290.377 574.45 292.223C574.45 294.916 573.486 297.056 571.559 298.642C569.631 300.214 566.999 301 563.663 301H552.363ZM558.987 276.473V283.445H561.899C563.267 283.445 564.34 283.117 565.119 282.461C565.912 281.791 566.309 280.875 566.309 279.713C566.309 277.553 564.695 276.473 561.469 276.473H558.987ZM558.987 288.367V296.119H562.576C564.107 296.119 565.304 295.764 566.165 295.053C567.04 294.342 567.478 293.371 567.478 292.141C567.478 290.965 567.047 290.042 566.186 289.372C565.338 288.702 564.148 288.367 562.617 288.367H558.987Z" fill="#333333"/>
<path d="M605.171 301H597.952L595.86 294.458H585.401L583.33 301H576.152L586.857 271.592H594.712L605.171 301ZM594.343 289.372L591.185 279.487C590.952 278.749 590.788 277.867 590.692 276.842H590.528C590.46 277.703 590.289 278.558 590.016 279.405L586.816 289.372H594.343Z" fill="#333333"/>
<path d="M635.297 301H628.611L616.491 282.522C615.78 281.442 615.288 280.629 615.015 280.082H614.933C615.042 281.121 615.097 282.707 615.097 284.84V301H608.842V271.592H615.979L627.647 289.495C628.181 290.302 628.673 291.102 629.124 291.895H629.206C629.097 291.211 629.042 289.864 629.042 287.854V271.592H635.297V301Z" fill="#333333"/>
<path d="M666.469 301H658.102L649.529 288.224C649.365 287.978 649.105 287.438 648.75 286.604H648.647V301H642.023V271.592H648.647V285.496H648.75C648.914 285.113 649.188 284.566 649.57 283.855L657.691 271.592H665.587L655.333 285.619L666.469 301Z" fill="#333333"/>
<path d="M693.334 301.513C689.123 301.513 685.691 300.146 683.039 297.411C680.387 294.663 679.061 291.088 679.061 286.686C679.061 282.037 680.407 278.277 683.101 275.406C685.794 272.535 689.362 271.1 693.806 271.1C698.003 271.1 701.394 272.474 703.978 275.222C706.575 277.97 707.874 281.593 707.874 286.091C707.874 290.712 706.527 294.438 703.834 297.268C701.154 300.098 697.654 301.513 693.334 301.513ZM693.621 276.801C691.297 276.801 689.451 277.676 688.084 279.426C686.717 281.162 686.033 283.466 686.033 286.337C686.033 289.249 686.717 291.553 688.084 293.248C689.451 294.943 691.242 295.791 693.457 295.791C695.74 295.791 697.552 294.971 698.892 293.33C700.231 291.676 700.901 289.386 700.901 286.46C700.901 283.411 700.252 281.039 698.953 279.344C697.654 277.648 695.877 276.801 693.621 276.801Z" fill="#333333"/>
<path d="M739.23 301H732.545L720.425 282.522C719.714 281.442 719.222 280.629 718.948 280.082H718.866C718.976 281.121 719.03 282.707 719.03 284.84V301H712.775V271.592H719.912L731.581 289.495C732.114 290.302 732.606 291.102 733.058 291.895H733.14C733.03 291.211 732.976 289.864 732.976 287.854V271.592H739.23V301Z" fill="#333333"/>
<path d="M573.445 355.954C571.299 356.993 568.496 357.513 565.037 357.513C560.525 357.513 556.978 356.187 554.394 353.534C551.81 350.882 550.518 347.348 550.518 342.932C550.518 338.229 551.967 334.414 554.865 331.488C557.777 328.562 561.551 327.1 566.186 327.1C569.057 327.1 571.477 327.462 573.445 328.187V334.564C571.477 333.389 569.234 332.801 566.719 332.801C563.957 332.801 561.729 333.669 560.033 335.405C558.338 337.142 557.49 339.493 557.49 342.46C557.49 345.304 558.29 347.573 559.89 349.269C561.489 350.95 563.643 351.791 566.35 351.791C568.934 351.791 571.299 351.162 573.445 349.904V355.954Z" fill="#333333"/>
<path d="M603.243 357H595.635L591.062 349.433C590.72 348.858 590.392 348.346 590.077 347.895C589.763 347.443 589.441 347.061 589.113 346.746C588.799 346.418 588.464 346.172 588.108 346.008C587.767 345.83 587.391 345.741 586.98 345.741H585.196V357H578.572V327.592H589.072C596.209 327.592 599.777 330.258 599.777 335.59C599.777 336.615 599.62 337.565 599.306 338.44C598.991 339.302 598.547 340.081 597.973 340.778C597.398 341.476 596.701 342.077 595.881 342.583C595.074 343.089 594.172 343.485 593.174 343.772V343.854C593.611 343.991 594.035 344.217 594.445 344.531C594.855 344.832 595.252 345.188 595.635 345.598C596.018 346.008 596.38 346.452 596.722 346.931C597.077 347.396 597.398 347.854 597.686 348.305L603.243 357ZM585.196 332.555V340.737H588.067C589.489 340.737 590.631 340.327 591.492 339.507C592.367 338.673 592.805 337.641 592.805 336.41C592.805 333.84 591.267 332.555 588.19 332.555H585.196Z" fill="#333333"/>
<path d="M623.648 357H606.012V327.592H622.972V332.985H612.636V339.527H622.254V344.9H612.636V351.627H623.648V357Z" fill="#333333"/>
<path d="M628.365 357V327.592H638.783C649.229 327.592 654.451 332.37 654.451 341.927C654.451 346.507 653.022 350.164 650.165 352.898C647.321 355.633 643.527 357 638.783 357H628.365ZM634.989 332.985V351.627H638.271C641.142 351.627 643.391 350.766 645.018 349.043C646.658 347.32 647.479 344.976 647.479 342.009C647.479 339.206 646.665 337.005 645.038 335.405C643.425 333.792 641.155 332.985 638.229 332.985H634.989Z" fill="#333333"/>
<path d="M665.956 357H659.332V327.592H665.956V357Z" fill="#333333"/>
<path d="M693.313 332.985H684.926V357H678.281V332.985H669.935V327.592H693.313V332.985Z" fill="#333333"/>
<path d="M734.739 357H727.521L725.429 350.458H714.97L712.898 357H705.721L716.426 327.592H724.28L734.739 357ZM723.911 345.372L720.753 335.487C720.521 334.749 720.356 333.867 720.261 332.842H720.097C720.028 333.703 719.857 334.558 719.584 335.405L716.385 345.372H723.911Z" fill="#333333"/>
<path d="M764.865 357H758.18L746.06 338.522C745.349 337.442 744.856 336.629 744.583 336.082H744.501C744.61 337.121 744.665 338.707 744.665 340.84V357H738.41V327.592H745.547L757.216 345.495C757.749 346.302 758.241 347.102 758.692 347.895H758.774C758.665 347.211 758.61 345.864 758.61 343.854V327.592H764.865V357Z" fill="#333333"/>
<path d="M771.592 357V327.592H782.01C792.455 327.592 797.678 332.37 797.678 341.927C797.678 346.507 796.249 350.164 793.392 352.898C790.548 355.633 786.754 357 782.01 357H771.592ZM778.216 332.985V351.627H781.497C784.368 351.627 786.617 350.766 788.244 349.043C789.885 347.32 790.705 344.976 790.705 342.009C790.705 339.206 789.892 337.005 788.265 335.405C786.651 333.792 784.382 332.985 781.456 332.985H778.216Z" fill="#333333"/>
<path d="M569.364 388.985H558.987V396.204H568.523V401.577H558.987V413H552.363V383.592H569.364V388.985Z" fill="#333333"/>
<path d="M580.849 413H574.225V383.592H580.849V413Z" fill="#333333"/>
<path d="M614.01 413H607.324L595.204 394.522C594.493 393.442 594.001 392.629 593.728 392.082H593.646C593.755 393.121 593.81 394.707 593.81 396.84V413H587.555V383.592H594.691L606.36 401.495C606.894 402.302 607.386 403.102 607.837 403.895H607.919C607.81 403.211 607.755 401.864 607.755 399.854V383.592H614.01V413Z" fill="#333333"/>
<path d="M646.597 413H639.378L637.286 406.458H626.827L624.756 413H617.578L628.283 383.592H636.138L646.597 413ZM635.769 401.372L632.61 391.487C632.378 390.749 632.214 389.867 632.118 388.842H631.954C631.886 389.703 631.715 390.558 631.441 391.405L628.242 401.372H635.769Z" fill="#333333"/>
<path d="M676.723 413H670.037L657.917 394.522C657.206 393.442 656.714 392.629 656.44 392.082H656.358C656.468 393.121 656.522 394.707 656.522 396.84V413H650.268V383.592H657.404L669.073 401.495C669.606 402.302 670.099 403.102 670.55 403.895H670.632C670.522 403.211 670.468 401.864 670.468 399.854V383.592H676.723V413Z" fill="#333333"/>
<path d="M704.531 411.954C702.385 412.993 699.582 413.513 696.123 413.513C691.611 413.513 688.063 412.187 685.479 409.534C682.896 406.882 681.604 403.348 681.604 398.932C681.604 394.229 683.053 390.414 685.951 387.488C688.863 384.562 692.637 383.1 697.271 383.1C700.143 383.1 702.562 383.462 704.531 384.187V390.564C702.562 389.389 700.32 388.801 697.805 388.801C695.043 388.801 692.814 389.669 691.119 391.405C689.424 393.142 688.576 395.493 688.576 398.46C688.576 401.304 689.376 403.573 690.976 405.269C692.575 406.95 694.729 407.791 697.436 407.791C700.02 407.791 702.385 407.162 704.531 405.904V411.954Z" fill="#333333"/>
<path d="M716.282 413H709.658V383.592H716.282V413Z" fill="#333333"/>
<path d="M748.849 413H741.63L739.538 406.458H729.079L727.008 413H719.83L730.535 383.592H738.39L748.849 413ZM738.021 401.372L734.862 391.487C734.63 390.749 734.466 389.867 734.37 388.842H734.206C734.138 389.703 733.967 390.558 733.693 391.405L730.494 401.372H738.021Z" fill="#333333"/>
<path d="M770.033 413H752.52V383.592H759.144V407.627H770.033V413Z" fill="#333333"/>
<path d="M558.987 469H552.363V439.592H558.987V469Z" fill="#333333"/>
<path d="M592.148 469H585.463L573.343 450.522C572.632 449.442 572.14 448.629 571.866 448.082H571.784C571.894 449.121 571.948 450.707 571.948 452.84V469H565.693V439.592H572.83L584.499 457.495C585.032 458.302 585.524 459.102 585.976 459.895H586.058C585.948 459.211 585.894 457.864 585.894 455.854V439.592H592.148V469Z" fill="#333333"/>
<path d="M597.521 467.872V461.31C598.711 462.308 600.003 463.06 601.397 463.565C602.792 464.058 604.2 464.304 605.622 464.304C606.456 464.304 607.181 464.229 607.796 464.078C608.425 463.928 608.944 463.723 609.354 463.463C609.778 463.189 610.093 462.875 610.298 462.52C610.503 462.15 610.605 461.754 610.605 461.33C610.605 460.756 610.441 460.243 610.113 459.792C609.785 459.341 609.334 458.924 608.76 458.541C608.199 458.158 607.529 457.789 606.75 457.434C605.971 457.078 605.13 456.716 604.228 456.347C601.931 455.39 600.215 454.221 599.08 452.84C597.959 451.459 597.398 449.791 597.398 447.836C597.398 446.305 597.706 444.992 598.321 443.898C598.937 442.791 599.771 441.882 600.823 441.171C601.89 440.46 603.12 439.94 604.515 439.612C605.909 439.271 607.386 439.1 608.944 439.1C610.476 439.1 611.829 439.195 613.005 439.387C614.194 439.564 615.288 439.845 616.286 440.228V446.359C615.794 446.018 615.254 445.717 614.666 445.457C614.092 445.197 613.497 444.985 612.882 444.821C612.267 444.644 611.651 444.514 611.036 444.432C610.435 444.35 609.86 444.309 609.313 444.309C608.562 444.309 607.878 444.384 607.263 444.534C606.647 444.671 606.128 444.869 605.704 445.129C605.28 445.389 604.952 445.703 604.72 446.072C604.487 446.428 604.371 446.831 604.371 447.282C604.371 447.774 604.501 448.219 604.761 448.615C605.021 448.998 605.39 449.367 605.868 449.723C606.347 450.064 606.928 450.406 607.611 450.748C608.295 451.076 609.067 451.418 609.929 451.773C611.104 452.266 612.157 452.792 613.087 453.353C614.03 453.899 614.837 454.521 615.507 455.219C616.177 455.916 616.689 456.716 617.045 457.618C617.4 458.507 617.578 459.546 617.578 460.735C617.578 462.376 617.264 463.757 616.635 464.878C616.02 465.985 615.179 466.888 614.112 467.585C613.046 468.269 611.802 468.761 610.38 469.062C608.972 469.362 607.481 469.513 605.909 469.513C604.296 469.513 602.758 469.376 601.295 469.103C599.846 468.829 598.588 468.419 597.521 467.872Z" fill="#333333"/>
<path d="M643.069 444.985H634.682V469H628.037V444.985H619.69V439.592H643.069V444.985Z" fill="#333333"/>
<path d="M653.651 469H647.027V439.592H653.651V469Z" fill="#333333"/>
<path d="M681.009 444.985H672.621V469H665.977V444.985H657.63V439.592H681.009V444.985Z" fill="#333333"/>
<path d="M708.94 456.265C708.94 465.097 704.825 469.513 696.595 469.513C688.61 469.513 684.618 465.199 684.618 456.572V439.592H691.263V456.654C691.263 461.412 693.122 463.791 696.841 463.791C700.491 463.791 702.316 461.494 702.316 456.9V439.592H708.94V456.265Z" fill="#333333"/>
<path d="M736.011 444.985H727.623V469H720.979V444.985H712.632V439.592H736.011V444.985Z" fill="#333333"/>
<path d="M746.593 469H739.969V439.592H746.593V469Z" fill="#333333"/>
<path d="M765.727 469.513C761.516 469.513 758.084 468.146 755.432 465.411C752.779 462.663 751.453 459.088 751.453 454.686C751.453 450.037 752.8 446.277 755.493 443.406C758.187 440.535 761.755 439.1 766.198 439.1C770.396 439.1 773.786 440.474 776.37 443.222C778.968 445.97 780.267 449.593 780.267 454.091C780.267 458.712 778.92 462.438 776.227 465.268C773.547 468.098 770.047 469.513 765.727 469.513ZM766.014 444.801C763.689 444.801 761.844 445.676 760.477 447.426C759.109 449.162 758.426 451.466 758.426 454.337C758.426 457.249 759.109 459.553 760.477 461.248C761.844 462.943 763.635 463.791 765.85 463.791C768.133 463.791 769.944 462.971 771.284 461.33C772.624 459.676 773.294 457.386 773.294 454.46C773.294 451.411 772.645 449.039 771.346 447.344C770.047 445.648 768.27 444.801 766.014 444.801Z" fill="#333333"/>
<path d="M811.623 469H804.938L792.817 450.522C792.106 449.442 791.614 448.629 791.341 448.082H791.259C791.368 449.121 791.423 450.707 791.423 452.84V469H785.168V439.592H792.305L803.974 457.495C804.507 458.302 804.999 459.102 805.45 459.895H805.532C805.423 459.211 805.368 457.864 805.368 455.854V439.592H811.623V469Z" fill="#333333"/>
<path d="M816.996 467.872V461.31C818.186 462.308 819.478 463.06 820.872 463.565C822.267 464.058 823.675 464.304 825.097 464.304C825.931 464.304 826.655 464.229 827.271 464.078C827.899 463.928 828.419 463.723 828.829 463.463C829.253 463.189 829.567 462.875 829.772 462.52C829.978 462.15 830.08 461.754 830.08 461.33C830.08 460.756 829.916 460.243 829.588 459.792C829.26 459.341 828.809 458.924 828.234 458.541C827.674 458.158 827.004 457.789 826.225 457.434C825.445 457.078 824.604 456.716 823.702 456.347C821.405 455.39 819.689 454.221 818.555 452.84C817.434 451.459 816.873 449.791 816.873 447.836C816.873 446.305 817.181 444.992 817.796 443.898C818.411 442.791 819.245 441.882 820.298 441.171C821.364 440.46 822.595 439.94 823.989 439.612C825.384 439.271 826.86 439.1 828.419 439.1C829.95 439.1 831.304 439.195 832.479 439.387C833.669 439.564 834.763 439.845 835.761 440.228V446.359C835.269 446.018 834.729 445.717 834.141 445.457C833.566 445.197 832.972 444.985 832.356 444.821C831.741 444.644 831.126 444.514 830.511 444.432C829.909 444.35 829.335 444.309 828.788 444.309C828.036 444.309 827.353 444.384 826.737 444.534C826.122 444.671 825.603 444.869 825.179 445.129C824.755 445.389 824.427 445.703 824.194 446.072C823.962 446.428 823.846 446.831 823.846 447.282C823.846 447.774 823.976 448.219 824.235 448.615C824.495 448.998 824.864 449.367 825.343 449.723C825.821 450.064 826.402 450.406 827.086 450.748C827.77 451.076 828.542 451.418 829.403 451.773C830.579 452.266 831.632 452.792 832.562 453.353C833.505 453.899 834.312 454.521 834.981 455.219C835.651 455.916 836.164 456.716 836.52 457.618C836.875 458.507 837.053 459.546 837.053 460.735C837.053 462.376 836.738 463.757 836.109 464.878C835.494 465.985 834.653 466.888 833.587 467.585C832.521 468.269 831.276 468.761 829.854 469.062C828.446 469.362 826.956 469.513 825.384 469.513C823.771 469.513 822.232 469.376 820.77 469.103C819.32 468.829 818.062 468.419 816.996 467.872Z" fill="#333333"/>
</svg>
