<svg  width="100%" height="100%" viewBox="0 0 19 19" fill="none" xmlns="http://www.w3.org/2000/svg">
<path d="M3.16634 4.74992H1.58301V15.8333C1.58301 16.7041 2.29551 17.4166 3.16634 17.4166H14.2497V15.8333H3.16634V4.74992ZM15.833 1.58325H6.33301C5.46217 1.58325 4.74967 2.29575 4.74967 3.16659V12.6666C4.74967 13.5374 5.46217 14.2499 6.33301 14.2499H15.833C16.7038 14.2499 17.4163 13.5374 17.4163 12.6666V3.16659C17.4163 2.29575 16.7038 1.58325 15.833 1.58325ZM15.0413 8.70825H11.8747V11.8749H10.2913V8.70825H7.12467V7.12492H10.2913V3.95825H11.8747V7.12492H15.0413V8.70825Z" fill="#5A77DF"/>
</svg>
