<svg width="100%" height="100%" viewBox="0 0 25 25" fill="none" xmlns="http://www.w3.org/2000/svg">
<rect width="100%" height="100%" rx="4.5" fill="#FEFFFF" stroke="#323954"/>
<path d="M18.1245 6.87553C18.5419 7.2929 18.5419 7.9696 18.1245 8.38697L14.0117 12.5L18.1245 16.613C18.5071 16.9956 18.539 17.5961 18.2201 18.015L18.1245 18.1245C17.7071 18.5419 17.0304 18.5419 16.613 18.1245L12.5 14.0117L8.38697 18.1245C7.9696 18.5419 7.2929 18.5419 6.87553 18.1245C6.45816 17.7071 6.45816 17.0304 6.87553 16.613L10.9883 12.5L6.87553 8.38697C6.49294 8.00438 6.46106 7.40388 6.77988 6.98498L6.87553 6.87553C7.2929 6.45816 7.9696 6.45816 8.38697 6.87553L12.5 10.9883L16.613 6.87553C17.0304 6.45816 17.7071 6.45816 18.1245 6.87553Z" fill="#323954"/>
</svg>
