<svg width="19" height="19" viewBox="0 0 19 19" fill="none" xmlns="http://www.w3.org/2000/svg">
<path d="M13.0586 4.16849C14.221 4.96247 14.745 6.46608 14.2406 7.84656L8.29298 5.68992C8.79733 4.30943 10.1689 3.49313 11.5716 3.62933L12.4175 1.314C12.567 0.904942 13.021 0.69403 13.4316 0.842915C13.8422 0.9918 14.0539 1.4441 13.9044 1.85316L13.0586 4.16849ZM10.5263 16.3737C9.72769 16.2118 8.89215 15.9726 8.01965 15.6562C7.07004 15.3119 6.21299 14.9255 5.44849 14.4972L5.95675 13.2543C5.98581 13.1832 5.97082 13.1018 5.91834 13.0457C5.8439 12.966 5.71874 12.9616 5.63879 13.0357L4.61253 13.9876C3.93718 13.5394 3.34954 13.0513 2.84961 12.5234C3.932 9.56071 5.40843 7.43992 7.27892 6.161L14.7135 8.8568C15.3212 11.0343 15.0839 13.6044 14.0015 16.5671C13.2215 16.6579 12.3932 16.648 11.5168 16.5374V14.7523C11.5168 14.6434 11.4282 14.5552 11.319 14.5552C11.2355 14.5552 11.1609 14.6075 11.1328 14.6858L10.5263 16.3737Z" fill="#FEFFFF"/>
</svg>
