<svg width="100%" height="100%" viewBox="0 0 19 19" fill="none" xmlns="http://www.w3.org/2000/svg">
<path d="M15.042 4.75011L14.1485 15.6C14.064 16.6267 13.2061 17.4168 12.176 17.4168H6.82462C5.79453 17.4168 4.93667 16.6267 4.85213 15.6L3.95866 4.75011H15.042ZM9.50033 6.33344C9.20884 6.33344 8.97255 6.56974 8.97255 6.86122V15.0418C8.97255 15.3333 9.20884 15.5696 9.50033 15.5696C9.79181 15.5696 10.0281 15.3333 10.0281 15.0418V6.86122C10.0281 6.56974 9.79181 6.33344 9.50033 6.33344ZM12.5005 6.34768C12.2099 6.32481 11.9558 6.54183 11.9329 6.83242L11.2911 14.9878C11.2682 15.2783 11.4852 15.5324 11.7758 15.5553C12.0664 15.5782 12.3205 15.3612 12.3434 15.0706L12.9852 6.91524C13.0081 6.62465 12.791 6.37055 12.5005 6.34768ZM6.55966 6.34639L6.49802 6.34768C6.20743 6.37055 5.99041 6.62465 6.01328 6.91524L6.65511 15.0706C6.67798 15.3612 6.93209 15.5782 7.22267 15.5553C7.51326 15.5324 7.73029 15.2783 7.70742 14.9878L7.06558 6.83242C7.04271 6.54183 6.7886 6.32481 6.49802 6.34768L6.55966 6.34639ZM10.16 1.05566C10.9195 1.05566 11.5791 1.48345 11.9109 2.11121L15.042 2.11122C15.4792 2.11122 15.8337 2.46566 15.8337 2.90289V3.49664C15.8337 3.60594 15.745 3.69455 15.6357 3.69455H3.36491C3.2556 3.69455 3.16699 3.60594 3.16699 3.49664V2.90289C3.16699 2.46566 3.52143 2.11122 3.95866 2.11122L7.08972 2.11121C7.42156 1.48345 8.08112 1.05566 8.8406 1.05566H10.16Z" fill="#5A77DF"/>
</svg>
