<svg width="40" height="40" viewBox="0 0 40 40" fill="none" xmlns="http://www.w3.org/2000/svg">
<path d="M19.9996 27.3975L28.1282 32.3624C28.1942 32.4027 28.2735 32.4153 28.3488 32.3974C28.5061 32.3598 28.6032 32.2019 28.5657 32.0445L26.3557 22.7795L33.5894 16.583C33.6482 16.5327 33.6847 16.4612 33.6908 16.384C33.7038 16.2228 33.5836 16.0816 33.4223 16.0687L23.9279 15.3075L20.27 6.51297C20.2403 6.44152 20.1835 6.38475 20.1121 6.35503C19.9627 6.29292 19.7913 6.36363 19.7292 6.51297L16.0713 15.3075L6.57685 16.0687C6.49972 16.0749 6.42818 16.1113 6.37784 16.1701C6.27262 16.2929 6.2869 16.4778 6.40973 16.583L13.6435 22.7795L11.4335 32.0445C11.4155 32.1198 11.4281 32.1991 11.4684 32.2651C11.5527 32.4032 11.733 32.4467 11.871 32.3624L19.9996 27.3975ZM19.9996 30.7455L13.3603 34.8007C11.8756 35.7075 9.93695 35.2391 9.03013 33.7544C8.59632 33.0442 8.46121 32.1911 8.65431 31.3816L10.4594 23.8141L4.551 18.7529C3.22977 17.6211 3.07619 15.6326 4.20796 14.3114C4.74939 13.6793 5.51894 13.2872 6.34853 13.2207L14.1035 12.599L17.0911 5.41574C17.7592 3.80944 19.603 3.04888 21.2093 3.71697C21.9777 4.03658 22.5884 4.6473 22.908 5.41574L25.8957 12.599L33.6507 13.2207C35.3848 13.3597 36.6779 14.8782 36.5389 16.6123C36.4723 17.4419 36.0802 18.2115 35.4482 18.7529L29.5398 23.8141L31.3449 31.3816C31.7485 33.0738 30.7039 34.7729 29.0117 35.1765C28.2022 35.3696 27.3491 35.2345 26.6389 34.8007L19.9996 30.7455Z" fill="#5A77DF"/>
<path d="M19.9996 27.3975L28.1282 32.3624C28.1942 32.4027 28.2735 32.4153 28.3488 32.3974C28.5061 32.3598 28.6032 32.2019 28.5657 32.0445L26.3557 22.7795L33.5894 16.583C33.6482 16.5327 33.6847 16.4612 33.6908 16.384C33.7038 16.2228 33.5836 16.0816 33.4223 16.0687L23.9279 15.3075L20.27 6.51297C20.2403 6.44152 20.1835 6.38475 20.1121 6.35503C19.9627 6.29292 19.7913 6.36363 19.7292 6.51297L16.0713 15.3075L6.57685 16.0687C6.49972 16.0749 6.42818 16.1113 6.37784 16.1701C6.27262 16.2929 6.2869 16.4778 6.40973 16.583L13.6435 22.7795L11.4335 32.0445C11.4155 32.1198 11.4281 32.1991 11.4684 32.2651C11.5527 32.4032 11.733 32.4467 11.871 32.3624L19.9996 27.3975Z" fill="#5A77DF"/>
</svg>
