<svg  width="100%" height="100%" viewBox="0 0 19 19" fill="none" xmlns="http://www.w3.org/2000/svg">
<path d="M9.49964 13.0138L13.3607 15.3721C13.3921 15.3913 13.4298 15.3972 13.4655 15.3887C13.5402 15.3709 13.5864 15.2958 13.5685 15.2211L12.5188 10.8202L15.9548 7.87689C15.9827 7.85298 16 7.819 16.003 7.78236C16.0091 7.70578 15.952 7.63872 15.8754 7.63258L11.3656 7.27103L9.62808 3.09361C9.61396 3.05968 9.58699 3.03271 9.55306 3.01859C9.48212 2.98909 9.4007 3.02267 9.3712 3.09361L7.63371 7.27103L3.12383 7.63258C3.0872 7.63552 3.05321 7.65284 3.0293 7.68075C2.97932 7.7391 2.98611 7.82691 3.04445 7.87689L6.4805 10.8202L5.43073 15.2211C5.4222 15.2569 5.42817 15.2945 5.44733 15.3259C5.48738 15.3915 5.57299 15.4121 5.63855 15.3721L9.49964 13.0138ZM9.49964 14.604L6.34597 16.5303C5.64076 16.961 4.71988 16.7385 4.28914 16.0333C4.08308 15.6959 4.0189 15.2907 4.11063 14.9062L4.96806 11.3117L2.16155 8.90759C1.53397 8.36999 1.46102 7.42543 1.99861 6.79785C2.25579 6.49762 2.62133 6.31137 3.01538 6.27978L6.69897 5.98447L8.11812 2.57243C8.43546 1.80943 9.31125 1.44817 10.0742 1.76551C10.4392 1.91733 10.7293 2.20742 10.8812 2.57243L12.3003 5.98447L15.9839 6.27978C16.8076 6.34582 17.4218 7.0671 17.3558 7.89082C17.3242 8.28487 17.1379 8.65041 16.8377 8.90759L14.0312 11.3117L14.8886 14.9062C15.0804 15.71 14.5842 16.5171 13.7804 16.7088C13.3959 16.8005 12.9907 16.7363 12.6533 16.5303L9.49964 14.604Z" fill="#5A77DF"/>
</svg>
