<svg width="28" height="28" viewBox="0 0 28 28" fill="none" xmlns="http://www.w3.org/2000/svg">
<path d="M14.2602 18.7515L13.9996 18.5923L13.739 18.7515L8.65426 21.8572L10.0367 16.0616L10.1076 15.7645L9.87565 15.5659L5.35065 11.6897L11.2898 11.2136L11.5942 11.1892L11.7115 10.9072L13.9996 5.40587L16.2877 10.9072L16.405 11.1892L16.7094 11.2136L22.6486 11.6897L18.1236 15.5659L17.8917 15.7645L17.9625 16.0616L19.345 21.8572L14.2602 18.7515ZM8.48969 22.5471L8.48981 22.5466L8.48969 22.5471ZM8.57023 23.0803L13.9996 19.764L19.429 23.0803C19.588 23.1774 19.7789 23.2076 19.9601 23.1644C20.3388 23.0741 20.5726 22.6938 20.4823 22.3151L19.0061 16.1266L23.8378 11.9878C23.9793 11.8666 24.067 11.6943 24.0819 11.5087C24.113 11.1206 23.8236 10.7807 23.4355 10.7496L17.0938 10.2412L14.6506 4.36696C14.579 4.19499 14.4423 4.0583 14.2704 3.98676C13.9109 3.83724 13.4982 4.00746 13.3487 4.36696L10.9054 10.2412L4.56374 10.7496C4.37807 10.7645 4.20584 10.8522 4.08466 10.9937C3.83136 11.2894 3.86573 11.7345 4.16144 11.9878L8.99315 16.1266L7.51698 22.3151C7.47377 22.4962 7.504 22.6872 7.6011 22.8461C7.80406 23.1784 8.23795 23.2832 8.57023 23.0803ZM14.2602 21.095L13.9996 20.9358L13.739 21.095L9.09148 23.9337C8.28788 24.4245 7.23853 24.171 6.74769 23.3674C6.51288 22.983 6.43975 22.5212 6.54427 22.083L7.80786 16.7858L7.87872 16.4887L7.64678 16.2901L3.51088 12.7472C2.79574 12.1346 2.71261 11.0583 3.3252 10.3431C3.61826 10.001 4.0348 9.78879 4.48383 9.75279L9.91227 9.31759L10.2167 9.29319L10.334 9.01121L12.4254 3.98293C12.787 3.11349 13.7849 2.70182 14.6544 3.06344C15.0703 3.23644 15.4009 3.567 15.5739 3.98293L17.6653 9.01121L17.7825 9.29319L18.087 9.31759L23.5154 9.75279C24.454 9.82804 25.154 10.65 25.0787 11.5886C25.0427 12.0376 24.8305 12.4542 24.4884 12.7472L20.3525 16.2901L20.1205 16.4887L20.1914 16.7858L21.455 22.083C21.6734 22.999 21.108 23.9186 20.1921 24.1371C19.7539 24.2416 19.2922 24.1685 18.9078 23.9337L14.2602 21.095Z" fill="#5A77DF" stroke="#5A77DF"/>
</svg>
