<svg width="100%" height="100%" viewBox="0 0 733 616" fill="none" xmlns="http://www.w3.org/2000/svg">
<path d="M199.609 162.508C141.987 128.111 165.443 23.4437 199.609 1.13226C133.931 -1.61847 76.7123 39.184 47.854 63.0236C18.9956 86.8633 6.55646 150.589 2.07844 174.428C-2.39958 198.268 7.55157 233.11 22.9758 263.368C38.4001 293.626 57.8049 301.879 75.7169 320.217C101.092 351.85 116.019 348.182 126.468 349.558C136.916 350.933 139.404 369.73 144.38 382.108C149.355 394.486 184.184 431.163 189.16 444.458C194.136 457.753 214.535 493.513 224.487 500.389C259.316 523.771 260.311 560.905 263.794 566.865C270.759 578.327 271.257 600.791 270.759 605.376C270.262 609.96 280.213 616.837 287.179 614.545C327.897 599.936 327.905 566.331 320.088 537.066C319.341 534.269 318.522 531.511 317.661 528.814C315.09 520.763 312.138 513.248 309.569 506.808C297.13 475.633 307.579 454.086 309.569 448.584C309.683 448.269 309.821 447.964 309.981 447.667C310.241 447.185 310.557 446.726 310.918 446.292C311.473 445.623 312.133 445.011 312.85 444.458C315.381 442.504 318.626 441.274 320.515 440.79C326.983 443.541 340.915 445.375 341.413 444.458C355.344 448.859 451.704 452.405 498.143 453.627C510.881 458.395 587.703 455.614 624.523 453.627V485.26L731 425.661L624.523 368.355V396.32C622.035 396.779 507.099 395.403 494.163 391.736C484.213 388.915 455.723 388.535 442.417 387.258C441.895 387.208 441.397 387.157 440.924 387.104C437.775 386.751 435.751 386.328 435.451 385.776C434.257 383.575 437.275 378.746 438.934 376.607C441.919 376.607 464.807 378.441 482.221 376.607C496.153 375.14 506.602 365.298 510.085 360.561C526.504 355.518 520.194 326.483 516.553 317.924C513.5 310.749 507.5 304.171 501.128 304.171H460.329C494.163 276.664 452.299 247.823 445.9 245.03C439.5 242.237 426.992 245.03 426.992 245.03C431.968 241.821 426.473 219.749 422.514 214.314C421.293 212.637 417.242 210.555 413.068 207.942C412.153 207.23 411.157 206.568 410.076 205.965C403.586 201.39 396.264 196.836 390.671 197.351C382.71 198.084 382.41 193.896 376.739 193.225C373.655 192.86 371.16 193.151 368.778 193.016C363.8 192.734 359.949 192.186 356.837 191.488C348.588 189.638 345.528 186.738 340.417 184.973C335.033 183.112 319.404 181.671 307.081 181.501C301.186 181.419 296.048 181.628 293.15 182.222C290.365 182.792 287.34 182.786 284.194 182.576C283.047 182.499 281.884 182.396 280.711 182.283C274.752 181.71 268.528 180.902 262.799 182.222C261.484 182.525 260.152 182.643 258.818 182.617C253.381 182.511 247.904 179.999 243.394 177.727C240.632 176.335 238.232 175.033 236.428 174.428C233.755 173.533 231.082 173.949 228.467 174.129C225.728 174.318 223.052 174.247 220.506 172.136C211.749 164.434 207.262 167.077 199.609 162.508Z" fill="#5A77DF"/>
<path d="M236.428 174.428C238.232 175.033 240.632 176.335 243.394 177.727M236.428 174.428C223.491 174.428 219.511 197.351 213.541 203.769C207.57 210.188 206.575 221.191 198.116 239.529C191.35 254.199 155.492 300.35 138.409 321.592C156.321 296.53 192.046 245.03 191.648 239.529C191.15 232.652 227.472 176.122 228.467 174.129M236.428 174.428C233.755 173.533 231.082 173.949 228.467 174.129M262.799 182.222C268.528 180.902 274.752 181.71 280.711 182.283M262.799 182.222C262.002 182.589 258.155 189.404 256.331 192.766C256.496 189.668 257.226 183.301 258.818 182.617M262.799 182.222C261.484 182.525 260.152 182.643 258.818 182.617M390.671 197.351C382.71 198.084 382.41 193.896 376.739 193.225C373.655 192.86 371.16 193.151 368.778 193.016M390.671 197.351C396.264 196.836 403.586 201.39 410.076 205.965M390.671 197.351C383.923 199.253 373.171 202.191 362.31 204.978M426.992 245.03C431.968 241.821 426.473 219.749 422.514 214.314C421 212.234 415.132 209.531 410.076 205.965M426.992 245.03C426.992 245.03 439.5 242.237 445.9 245.03C452.299 247.823 494.163 276.664 460.329 304.171M426.992 245.03C424.505 245.947 410.076 252.824 388.183 258.325C373.969 261.897 352.827 266.262 340.417 273.613M460.329 304.171H501.128C507.5 304.171 513.5 310.749 516.553 317.924C520.194 326.483 526.504 355.518 510.085 360.561C506.602 365.298 496.153 375.14 482.221 376.607C464.807 378.441 441.919 376.607 438.934 376.607C437.275 378.746 434.257 383.575 435.451 385.776M460.329 304.171L398.134 308.297C396.28 309.217 394.2 310.008 392.164 310.664M435.451 385.776C435.751 386.328 437.775 386.751 440.924 387.104M435.451 385.776C433.958 389.138 429.978 396.137 425.998 397.237M341.413 444.458C355.344 448.859 451.704 452.405 498.143 453.627C510.881 458.395 587.703 455.614 624.523 453.627V485.26L731 425.661L624.523 368.355V396.32C622.035 396.779 507.099 395.403 494.163 391.736C484.213 388.915 455.723 388.535 442.417 387.258M341.413 444.458C340.915 445.375 326.983 443.541 320.515 440.79M341.413 444.458C348.876 438.651 365.594 424.836 372.759 416.034C381.715 405.031 400.622 391.736 388.183 373.856M320.515 440.79C318.626 441.274 315.381 442.504 312.85 444.458M320.515 440.79C327.979 435.289 343.901 420.435 347.881 405.031C345.393 417.562 336.437 442.257 320.515 440.79ZM320.088 537.066C327.905 566.331 327.897 599.936 287.179 614.545C280.213 616.837 270.262 609.96 270.759 605.376C271.257 600.791 270.759 578.327 263.794 566.865C260.311 560.905 259.316 523.771 224.487 500.389C214.535 493.513 194.136 457.753 189.16 444.458C184.184 431.163 149.355 394.486 144.38 382.108C139.404 369.73 136.916 350.933 126.468 349.558C116.019 348.182 101.092 351.85 75.7169 320.217C57.8049 301.879 38.4001 293.626 22.9758 263.368C7.55157 233.11 -2.39958 198.268 2.07844 174.428C6.55646 150.589 18.9956 86.8633 47.854 63.0236C76.7123 39.184 133.931 -1.61847 199.609 1.13226C165.443 23.4437 141.987 128.111 199.609 162.508C207.263 167.077 211.749 164.434 220.506 172.136C223.052 174.247 225.728 174.318 228.467 174.129M320.088 537.066C318.738 545.624 311.957 562.373 295.638 560.905L320.088 537.066ZM320.088 537.066C319.341 534.269 318.522 531.511 317.661 528.814M317.661 528.814C315.09 520.763 312.138 513.248 309.569 506.808C297.13 475.633 307.579 454.086 309.569 448.584C309.683 448.269 309.821 447.964 309.981 447.667M317.661 528.814C311.978 538.288 296.334 556.963 279.218 555.862C285.11 555.098 301.047 548.619 317.661 528.814ZM236.926 447.209C240.575 444.764 248.668 439.782 251.852 439.415M282.203 435.289C289.941 437.123 306.33 442.166 309.981 447.667M309.981 447.667C310.241 447.185 310.557 446.726 310.918 446.292M312.85 444.458C315.903 435.289 318.028 413.191 302.106 398.154C307.317 405.489 316.376 425.386 310.918 446.292M312.85 444.458C312.133 445.011 311.473 445.623 310.918 446.292M388.183 373.856L367.783 375.69M388.183 373.856C394.486 373.55 407.389 371.564 408.583 366.062C413.227 369.883 429.879 376.515 459.334 372.481M367.783 375.69C370.105 391.989 370.57 425.078 353.852 427.037M367.783 375.69C361.979 377.829 348.578 378.257 341.413 362.853C338.42 356.419 337.483 350.957 338.1 346.349M388.183 434.372C396.642 432.233 414.454 426.853 418.037 422.452M442.417 387.258C444.075 394.099 445.9 408.607 439.929 411.908M442.417 387.258C441.895 387.208 441.397 387.157 440.924 387.104M440.924 387.104C440.261 394.608 436.247 410.441 425.5 413.742M342.408 336.747C345.727 332.847 350.646 330 356.34 328.01C356.726 327.773 357.231 327.478 357.832 327.135M342.408 336.747C338.427 336.586 328.476 333.787 320.515 323.884C318.112 320.896 317.189 317.052 317.234 312.881M342.408 336.747C341.66 337.626 340.993 338.559 340.417 339.547M340.417 273.613C339.166 274.354 338 275.069 336.935 275.744M340.417 273.613C339.967 273.565 337.882 274.493 334.945 275.358M340.417 339.547C341.247 348.691 344.199 366.796 349.374 366.062C355.842 365.145 362.808 358.268 362.808 356.435C362.808 354.601 360.818 330.386 357.832 327.135M340.417 339.547C339.237 341.573 338.437 343.834 338.1 346.349M357.832 327.135C362.671 324.377 373.755 318.549 379.599 315.174M366.788 357.81C365.461 349.391 362.808 332.012 362.808 329.844M386.691 353.225C381.963 347.418 373.926 331.678 379.599 315.174M379.599 315.174C381.447 314.106 382.771 313.284 383.208 312.881C384.334 312.698 386.118 312.339 388.183 311.811M395.149 346.807C392.164 338.147 387.387 318.793 392.164 310.664M392.164 310.664C390.789 311.108 389.434 311.49 388.183 311.811M385.695 333.053C385.53 326.838 385.795 313.888 388.183 311.811M322.008 294.225C321.013 298.951 334.447 319.3 334.945 321.592C335.343 323.426 331.959 328.01 329.471 328.01C325.791 324.343 318.191 316.182 317.234 312.881M322.008 294.225C319.416 300.046 317.299 306.81 317.234 312.881M322.008 294.225C323.919 289.933 326.088 286.153 327.882 283.54M344.398 319.758C340.749 317.008 333.452 309.856 333.452 303.254C333.452 295.002 332.263 286.75 327.882 283.54M327.882 283.54C328.904 282.051 329.805 280.941 330.467 280.331C330.845 279.983 331.426 279.516 332.185 278.956M345.891 311.811C343.403 309.111 338.328 302.429 337.93 297.294C337.532 292.159 333.934 282.929 332.185 278.956M332.185 278.956C333.367 278.083 334.981 276.982 336.935 275.744M344.398 301.42C344.398 294.847 342.906 280.51 336.935 275.744M351.364 296.377C352.193 300.757 355.046 309.747 359.822 310.664M455.353 290.417C453.032 291.334 447.293 292.068 442.915 287.666M436.944 265.202C435.949 260.923 437.242 252.457 450.378 252.824M421.52 240.446C423.676 232.282 424.405 213.957 410.076 205.965M334.945 275.358C329.77 274.314 324.164 266.624 322.008 262.91C323.998 273.913 331.462 275.793 334.945 275.358ZM334.945 275.358C332.423 276.1 329.273 276.796 325.989 276.786M315.54 261.535C317.696 265.437 322.804 273.95 325.989 276.786M325.989 276.786C320.432 276.769 314.493 274.734 310.564 267.494C301.608 250.99 306.086 237.695 310.564 231.735C310.89 231.302 311.189 230.841 311.471 230.36M313.55 226.054L315.54 250.99C314.32 244.725 311.798 231.827 311.471 230.36M313.55 226.054C312.872 227.58 312.237 229.049 311.471 230.36M313.55 226.054C315.045 222.686 316.746 219.042 320.515 216.229M377.237 216.606C377.569 213.244 382.312 206.978 398.632 208.812M362.31 204.978C350.479 208.015 338.518 210.874 331.462 212.021C326.506 212.827 323.045 214.341 320.515 216.229M362.31 204.978C364.135 201.074 367.982 193.216 368.778 193.016M368.778 193.016C363.8 192.734 359.949 192.186 356.837 191.488M356.837 205.965V191.488M356.837 191.488C348.588 189.638 345.528 186.738 340.417 184.973C335.033 183.112 319.404 181.671 307.081 181.501M337.432 188.64C335.442 190.168 332.059 194.875 334.447 201.477M320.515 216.229C321.676 210.089 322.307 195.609 315.54 186.806C320.213 190.375 327.751 201.257 320.515 216.229ZM309.072 209.729C309.901 204.839 311.062 194.6 309.072 192.766C307.081 190.933 306.916 184.492 307.081 181.501M307.081 181.501C301.186 181.419 296.048 181.628 293.15 182.222C290.365 182.792 287.34 182.786 284.194 182.576M280.711 182.283C287.876 184.165 288.008 200.142 287.179 207.895C289.999 202.477 293.349 189.828 284.194 182.576M280.711 182.283C281.884 182.396 283.047 182.499 284.194 182.576M258.818 182.617C253.381 182.511 247.904 179.999 243.394 177.727M237.423 186.348C239.082 183.504 242.598 177.799 243.394 177.727M122.488 290.876C126.8 286.444 135.723 276.572 136.917 272.537M136.917 272.537C138.111 268.503 160.302 223.483 171.248 201.477C174.068 195.67 179.309 184.056 177.716 184.056C176.849 184.056 169.105 200.585 160.592 219.357M136.917 272.537C137.235 271.781 148.954 245.067 159.762 221.191M160.592 219.357C143.579 208.965 109.949 180.388 111.541 149.213C107.367 163.425 111.166 197.718 159.762 221.191M160.592 219.357C160.316 219.966 160.039 220.577 159.762 221.191M144.38 217.981C133.931 209.023 112.735 189.408 111.541 182.617M183.19 302.337C189.326 298.669 206.973 292.343 228.467 296.377C235.904 294.184 245.946 295.474 256.828 298.898M338.1 346.349C335.45 347.816 327.927 343.292 324.496 340.847C324.132 340.419 323.752 339.985 323.356 339.547M321.511 373.856C323.404 364.279 326.425 344.009 323.356 339.547M323.356 339.547C320.087 335.93 315.726 331.994 310.63 328.01M314.047 363.77C315.418 354.601 316.654 334.612 310.63 328.01M310.63 328.01C301.248 320.676 289.374 313.18 277.228 307.217M289.169 383.942C289.506 382.849 289.861 381.616 290.22 380.274M267.774 302.922C269.267 306.242 272.75 313.157 274.74 314.257C277.228 315.632 287.677 331.22 291.16 342.681C296.493 350.216 293.224 369.044 290.22 380.274M267.774 302.922C267.11 302.645 266.446 302.374 265.784 302.109M267.774 302.922C270.918 304.231 274.082 305.672 277.228 307.217M265.784 302.109C267.326 305.853 271.872 314.899 277.725 321.134C285.042 328.927 298.733 365.145 290.22 380.274M265.784 302.109C264.786 301.71 263.79 301.325 262.799 300.956M259.813 299.883C274.143 308.19 277.725 342.573 277.725 358.727C282.502 349.191 265.784 314.868 256.828 298.898M259.813 299.883C259.147 299.654 258.484 299.431 257.823 299.216M259.813 299.883C260.31 300.054 260.807 300.23 261.306 300.409M256.828 298.898C257.159 299.002 257.491 299.108 257.823 299.216M257.823 299.216C257.657 293.227 258.022 280.606 260.809 278.039C264.291 274.83 259.813 265.661 264.789 261.535C269.765 257.408 276.233 244.572 273.247 240.904M261.306 300.409C270.76 292.952 289.368 275.196 288.174 263.827M261.306 300.409C261.802 300.587 262.3 300.77 262.799 300.956M262.799 300.956C270.594 297.137 287.975 286.108 295.14 272.537M277.228 307.217C277.725 306.922 300.613 294.543 301.608 288.583M243.394 471.507C253.013 467.534 272.551 459.404 273.745 458.67C275.238 457.753 251.852 461.879 243.394 471.507ZM217.521 454.086C218.516 454.086 235.931 459.587 254.838 454.086C260.012 453.352 264.623 453.78 266.282 454.086C257.16 456.072 238.518 459.954 236.926 459.587C234.936 459.129 217.521 456.378 217.521 454.086ZM222.497 438.04C231.618 434.066 251.255 426.578 256.828 428.412C248.038 432.385 228.865 439.873 222.497 438.04ZM418.534 236.32C417.705 229.016 414.056 213.565 406.095 210.188C411.734 211.105 422.117 217.615 418.534 236.32ZM138.409 289.042C141.561 279.873 149.455 260.343 155.824 255.575C162.193 250.807 166.438 237.695 167.765 231.735C157.482 246.1 137.215 277.672 138.409 289.042ZM172.741 289.042C179.043 280.026 196.325 262.176 215.033 262.91C207.072 264.744 187.469 272.537 172.741 289.042ZM159.762 307.838C173.21 296.683 200.903 274.005 204.087 272.537C208.067 270.704 165.192 308.297 159.762 307.838Z" stroke="#323954"/>
</svg>
