<svg width="100%" height="100%" viewBox="0 0 876 876" fill="none" xmlns="http://www.w3.org/2000/svg">
<rect  width="100%" height="100%" rx="100" fill="#5A77DF"/>
<path fill-rule="evenodd" clip-rule="evenodd" d="M683 193V682.5H193V671.5L615 672.379C615.192 671.062 615.401 669.769 615.628 668.5L249 589.5L250 583.5L616.645 663.5C617.131 661.379 617.675 659.33 618.278 657.353L271 514.5L274 509.5L619.875 652.653C620.752 650.326 621.725 648.11 622.797 646L310 439.5L314 434.5L625.338 641.5C626.703 639.318 628.197 637.267 629.826 635.343L365 370.5L369 366.5L633.629 631.314C635.302 629.723 637.091 628.237 639 626.853L432 314.5L437 310.5L643.346 624L648.5 621L500.5 277L505 274.5L654 618.932C655.921 618.208 657.92 617.542 660 616.931L581 250L587 248.5L665 615.606C667.556 614.998 670.221 614.463 673 614V193H683ZM673 672.5L625 672.4C626.167 657.1 637.4 626.1 673 624.5V672.5Z" fill="#FEFFFF" stroke="#FEFFFF" stroke-width="21"/>
</svg>
