<svg width="100%" height="100%" viewBox="0 0 100 58" fill="none" xmlns="http://www.w3.org/2000/svg">
<path fill-rule="evenodd" clip-rule="evenodd" d="M58.1201 0V58H0V56.6966L50.0544 56.8008C50.0772 56.6447 50.102 56.4915 50.1289 56.3412L6.6423 46.9806L6.76091 46.2697L50.2495 55.7487C50.3072 55.4974 50.3717 55.2547 50.4432 55.0204L9.25177 38.094L9.60761 37.5015L50.6327 54.4634C50.7367 54.1878 50.8521 53.9252 50.9793 53.6752L13.8777 29.2074L14.3521 28.6149L51.2807 53.142C51.4426 52.8834 51.6198 52.6404 51.813 52.4125L20.4013 21.0317L20.8758 20.5577L52.264 51.935C52.4625 51.7466 52.6747 51.5705 52.9011 51.4064L28.3484 14.3963L28.9414 13.9224L53.4166 51.0684L54.028 50.713L36.4733 9.95301L37.0071 9.65679L54.6803 50.468C54.9082 50.3822 55.1453 50.3032 55.392 50.2308L46.0216 6.75383L46.7333 6.5761L55.9851 50.0738C56.2882 50.0018 56.6044 49.9384 56.934 49.8836V0H58.1201ZM56.934 56.8151L51.2406 56.8033C51.3789 54.9904 52.7114 51.3173 56.934 51.1277V56.8151Z" fill="white"/>
<path d="M65.5172 9.1236V5.63907H66.7528C67.9918 5.63907 68.6113 6.20524 68.6113 7.33759C68.6113 7.88028 68.4418 8.31362 68.1029 8.63761C67.7656 8.9616 67.3156 9.1236 66.7528 9.1236H65.5172ZM66.3028 6.27814V8.48695H66.692C67.0326 8.48695 67.2993 8.38489 67.4923 8.18078C67.6869 7.97667 67.7842 7.69884 67.7842 7.34731C67.7842 7.01522 67.6877 6.75441 67.4948 6.56487C67.3034 6.37372 67.0342 6.27814 66.6872 6.27814H66.3028Z" fill="white"/>
<path d="M69.9759 9.1236H69.1902V5.63907H69.9759V9.1236Z" fill="white"/>
<path d="M73.6976 9.1236H72.7951L72.2527 8.22695C72.2121 8.15891 72.1732 8.09816 72.1359 8.0447C72.0986 7.99125 72.0605 7.94589 72.0216 7.90863C71.9843 7.86975 71.9446 7.84059 71.9024 7.82115C71.8619 7.80009 71.8173 7.78956 71.7686 7.78956H71.557V9.1236H70.7713V5.63907H72.0167C72.8632 5.63907 73.2865 5.95496 73.2865 6.58674C73.2865 6.70824 73.2678 6.82083 73.2305 6.9245C73.1932 7.02656 73.1405 7.1189 73.0724 7.20152C73.0043 7.28413 72.9216 7.35541 72.8243 7.41535C72.7286 7.47529 72.6216 7.52227 72.5032 7.55629V7.56601C72.5551 7.58221 72.6054 7.60894 72.654 7.64619C72.7027 7.68183 72.7497 7.72395 72.7951 7.77255C72.8405 7.82115 72.8835 7.8738 72.924 7.9305C72.9662 7.98558 73.0043 8.03984 73.0384 8.0933L73.6976 9.1236ZM71.557 6.22711V7.19666H71.8975C72.0662 7.19666 72.2016 7.14806 72.3038 7.05086C72.4076 6.95204 72.4594 6.82974 72.4594 6.68394C72.4594 6.37939 72.277 6.22711 71.9121 6.22711H71.557Z" fill="white"/>
<path d="M76.1179 9.1236H74.026V5.63907H76.0376V6.27814H74.8117V7.05329H75.9525V7.68993H74.8117V8.48695H76.1179V9.1236Z" fill="white"/>
<path d="M79.178 8.99967C78.9234 9.12279 78.5909 9.18434 78.1806 9.18434C77.6455 9.18434 77.2247 9.02721 76.9182 8.71294C76.6117 8.39866 76.4585 7.97991 76.4585 7.45666C76.4585 6.8994 76.6303 6.44743 76.9741 6.10076C77.3195 5.75409 77.7671 5.58075 78.3169 5.58075C78.6574 5.58075 78.9444 5.62368 79.178 5.70954V6.46525C78.9444 6.32593 78.6785 6.25627 78.3801 6.25627C78.0525 6.25627 77.7882 6.35914 77.5871 6.56487C77.386 6.77061 77.2855 7.04924 77.2855 7.40077C77.2855 7.73772 77.3804 8.00664 77.5701 8.20751C77.7598 8.40676 78.0152 8.50639 78.3363 8.50639C78.6428 8.50639 78.9234 8.43187 79.178 8.28284V8.99967Z" fill="white"/>
<path d="M82.2356 6.27814H81.2407V9.1236H80.4526V6.27814H79.4626V5.63907H82.2356V6.27814Z" fill="white"/>
<path d="M83.9943 9.18434C83.4948 9.18434 83.0878 9.02235 82.7732 8.69836C82.4586 8.37275 82.3013 7.94913 82.3013 7.4275C82.3013 6.87672 82.461 6.43123 82.7805 6.09104C83.0999 5.75085 83.5232 5.58075 84.0502 5.58075C84.5481 5.58075 84.9502 5.74356 85.2567 6.06917C85.5649 6.39478 85.7189 6.82407 85.7189 7.35703C85.7189 7.90458 85.5592 8.34602 85.2397 8.68135C84.9219 9.01668 84.5067 9.18434 83.9943 9.18434ZM84.0283 6.25627C83.7526 6.25627 83.5337 6.35995 83.3716 6.5673C83.2094 6.77304 83.1283 7.046 83.1283 7.38619C83.1283 7.73124 83.2094 8.00421 83.3716 8.20508C83.5337 8.40595 83.7462 8.50639 84.0089 8.50639C84.2797 8.50639 84.4946 8.40919 84.6535 8.2148C84.8124 8.01879 84.8919 7.74744 84.8919 7.40077C84.8919 7.03952 84.8148 6.75846 84.6608 6.55758C84.5067 6.35671 84.2959 6.25627 84.0283 6.25627Z" fill="white"/>
<path d="M89.2265 9.1236H88.3241L87.7816 8.22695C87.7411 8.15891 87.7022 8.09816 87.6649 8.0447C87.6276 7.99125 87.5895 7.94589 87.5506 7.90863C87.5133 7.86975 87.4735 7.84059 87.4314 7.82115C87.3908 7.80009 87.3462 7.78956 87.2976 7.78956H87.086V9.1236H86.3003V5.63907H87.5457C88.3922 5.63907 88.8155 5.95496 88.8155 6.58674C88.8155 6.70824 88.7968 6.82083 88.7595 6.9245C88.7222 7.02656 88.6695 7.1189 88.6014 7.20152C88.5333 7.28413 88.4506 7.35541 88.3533 7.41535C88.2576 7.47529 88.1506 7.52227 88.0322 7.55629V7.56601C88.0841 7.58221 88.1344 7.60894 88.183 7.64619C88.2317 7.68183 88.2787 7.72395 88.3241 7.77255C88.3695 7.82115 88.4125 7.8738 88.453 7.9305C88.4952 7.98558 88.5333 8.03984 88.5673 8.0933L89.2265 9.1236ZM87.086 6.22711V7.19666H87.4265C87.5952 7.19666 87.7306 7.14806 87.8327 7.05086C87.9365 6.95204 87.9884 6.82974 87.9884 6.68394C87.9884 6.37939 87.806 6.22711 87.4411 6.22711H87.086Z" fill="white"/>
<path d="M92.1358 5.63907L90.9998 7.88433V9.1236H90.2141V7.89891L89.1074 5.63907H90.0049L90.5668 6.93908C90.5766 6.96338 90.6033 7.05815 90.6471 7.22339H90.6568C90.6779 7.10675 90.7031 7.01522 90.7322 6.9488L91.3039 5.63907H92.1358Z" fill="white"/>
<path d="M95.3832 9.18434C94.8837 9.18434 94.4766 9.02235 94.162 8.69836C93.8474 8.37275 93.6901 7.94913 93.6901 7.4275C93.6901 6.87672 93.8499 6.43123 94.1693 6.09104C94.4888 5.75085 94.9121 5.58075 95.4391 5.58075C95.937 5.58075 96.3391 5.74356 96.6456 6.06917C96.9537 6.39478 97.1078 6.82407 97.1078 7.35703C97.1078 7.90458 96.9481 8.34602 96.6286 8.68135C96.3107 9.01668 95.8956 9.18434 95.3832 9.18434ZM95.4172 6.25627C95.1415 6.25627 94.9226 6.35995 94.7604 6.5673C94.5983 6.77304 94.5172 7.046 94.5172 7.38619C94.5172 7.73124 94.5983 8.00421 94.7604 8.20508C94.9226 8.40595 95.135 8.50639 95.3978 8.50639C95.6686 8.50639 95.8834 8.40919 96.0424 8.2148C96.2013 8.01879 96.2807 7.74744 96.2807 7.40077C96.2807 7.03952 96.2037 6.75846 96.0497 6.55758C95.8956 6.35671 95.6848 6.25627 95.4172 6.25627Z" fill="white"/>
<path d="M99.7057 6.27814H98.4748V7.13348H99.6059V7.77012H98.4748V9.1236H97.6891V5.63907H99.7057V6.27814Z" fill="white"/>
<path d="M66.3028 15.7589H65.5172V12.2744H66.3028V15.7589Z" fill="white"/>
<path d="M70.2362 15.7589H69.4432L68.0056 13.5696C67.9213 13.4416 67.8629 13.3452 67.8304 13.2804H67.8207C67.8337 13.4035 67.8402 13.5914 67.8402 13.8441V15.7589H67.0983V12.2744H67.9448L69.3288 14.3957C69.3921 14.4913 69.4505 14.5861 69.504 14.68H69.5137C69.5007 14.599 69.4943 14.4395 69.4943 14.2013V12.2744H70.2362V15.7589Z" fill="white"/>
<path d="M73.0505 12.9135H71.8197V13.7688H72.9508V14.4055H71.8197V15.7589H71.034V12.2744H73.0505V12.9135Z" fill="white"/>
<path d="M75.1011 15.8197C74.6017 15.8197 74.1946 15.6577 73.88 15.3337C73.5654 15.0081 73.4081 14.5845 73.4081 14.0628C73.4081 13.5121 73.5678 13.0666 73.8873 12.7264C74.2068 12.3862 74.63 12.2161 75.1571 12.2161C75.6549 12.2161 76.0571 12.3789 76.3636 12.7045C76.6717 13.0301 76.8258 13.4594 76.8258 13.9924C76.8258 14.5399 76.666 14.9814 76.3466 15.3167C76.0287 15.652 75.6136 15.8197 75.1011 15.8197ZM75.1352 12.8916C74.8595 12.8916 74.6406 12.9953 74.4784 13.2026C74.3162 13.4084 74.2352 13.6813 74.2352 14.0215C74.2352 14.3666 74.3162 14.6395 74.4784 14.8404C74.6406 15.0413 74.853 15.1417 75.1157 15.1417C75.3865 15.1417 75.6014 15.0445 75.7603 14.8501C75.9193 14.6541 75.9987 14.3828 75.9987 14.0361C75.9987 13.6749 75.9217 13.3938 75.7676 13.1929C75.6136 12.9921 75.4028 12.8916 75.1352 12.8916Z" fill="white"/>
<path d="M80.3334 15.7589H79.4309L78.8885 14.8623C78.848 14.7943 78.809 14.7335 78.7717 14.68C78.7344 14.6266 78.6963 14.5812 78.6574 14.544C78.6201 14.5051 78.5804 14.4759 78.5382 14.4565C78.4977 14.4354 78.4531 14.4249 78.4044 14.4249H78.1928V15.7589H77.4071V12.2744H78.6525C79.4991 12.2744 79.9223 12.5903 79.9223 13.2221C79.9223 13.3436 79.9037 13.4562 79.8664 13.5598C79.8291 13.6619 79.7764 13.7542 79.7082 13.8369C79.6401 13.9195 79.5574 13.9908 79.4601 14.0507C79.3645 14.1106 79.2574 14.1576 79.139 14.1916V14.2013C79.1909 14.2175 79.2412 14.2443 79.2899 14.2815C79.3385 14.3172 79.3855 14.3593 79.4309 14.4079C79.4763 14.4565 79.5193 14.5091 79.5599 14.5658C79.602 14.6209 79.6401 14.6752 79.6742 14.7286L80.3334 15.7589ZM78.1928 12.8625V13.832H78.5334C78.702 13.832 78.8374 13.7834 78.9396 13.6862C79.0434 13.5874 79.0953 13.4651 79.0953 13.3193C79.0953 13.0147 78.9128 12.8625 78.548 12.8625H78.1928Z" fill="white"/>
<path d="M84.6365 15.7589H83.8605V13.6741C83.8605 13.4489 83.8702 13.2002 83.8897 12.9281H83.8702C83.8297 13.1419 83.7932 13.2958 83.7608 13.3898L82.9434 15.7589H82.3013L81.4694 13.4141C81.4467 13.3509 81.4102 13.1889 81.3599 12.9281H81.338C81.3591 13.2715 81.3696 13.5728 81.3696 13.832V15.7589H80.6618V12.2744H81.8123L82.5251 14.3399C82.5818 14.5051 82.6232 14.6711 82.6491 14.838H82.6637C82.7075 14.6452 82.7537 14.4776 82.8024 14.335L83.5151 12.2744H84.6365V15.7589Z" fill="white"/>
<path d="M88.4968 15.7589H87.6406L87.3924 14.9838H86.1519L85.9062 15.7589H85.0548L86.3246 12.2744H87.2562L88.4968 15.7589ZM87.2124 14.3812L86.8378 13.2099C86.8103 13.1225 86.7908 13.018 86.7795 12.8965H86.76C86.7519 12.9985 86.7316 13.0998 86.6992 13.2002L86.3197 14.3812H87.2124Z" fill="white"/>
<path d="M91.0314 12.9135H90.0366V15.7589H89.2484V12.9135H88.2584V12.2744H91.0314V12.9135Z" fill="white"/>
<path d="M92.2866 15.7589H91.5009V12.2744H92.2866V15.7589Z" fill="white"/>
<path d="M94.5561 15.8197C94.0566 15.8197 93.6496 15.6577 93.335 15.3337C93.0204 15.0081 92.8631 14.5845 92.8631 14.0628C92.8631 13.5121 93.0228 13.0666 93.3423 12.7264C93.6618 12.3862 94.085 12.2161 94.6121 12.2161C95.1099 12.2161 95.5121 12.3789 95.8186 12.7045C96.1267 13.0301 96.2807 13.4594 96.2807 13.9924C96.2807 14.5399 96.121 14.9814 95.8015 15.3167C95.4837 15.652 95.0685 15.8197 94.5561 15.8197ZM94.5902 12.8916C94.3145 12.8916 94.0956 12.9953 93.9334 13.2026C93.7712 13.4084 93.6901 13.6813 93.6901 14.0215C93.6901 14.3666 93.7712 14.6395 93.9334 14.8404C94.0956 15.0413 94.308 15.1417 94.5707 15.1417C94.8415 15.1417 95.0564 15.0445 95.2153 14.8501C95.3742 14.6541 95.4537 14.3828 95.4537 14.0361C95.4537 13.6749 95.3767 13.3938 95.2226 13.1929C95.0686 12.9921 94.8577 12.8916 94.5902 12.8916Z" fill="white"/>
<path d="M100 15.7589H99.207L97.7694 13.5696C97.6851 13.4416 97.6267 13.3452 97.5943 13.2804H97.5845C97.5975 13.4035 97.604 13.5914 97.604 13.8441V15.7589H96.8621V12.2744H97.7086L99.0927 14.3957C99.1559 14.4913 99.2143 14.5861 99.2678 14.68H99.2776C99.2646 14.599 99.2581 14.4395 99.2581 14.2013V12.2744H100V15.7589Z" fill="white"/>
<path d="M66.9912 22.455C66.4918 22.455 66.0847 22.293 65.7701 21.969C65.4555 21.6434 65.2982 21.2198 65.2982 20.6982C65.2982 20.1474 65.458 19.7019 65.7774 19.3617C66.0969 19.0215 66.5201 18.8514 67.0472 18.8514C67.545 18.8514 67.9472 19.0142 68.2537 19.3399C68.5618 19.6655 68.7159 20.0948 68.7159 20.6277C68.7159 21.1753 68.5561 21.6167 68.2367 21.952C67.9188 22.2874 67.5037 22.455 66.9912 22.455ZM67.0253 19.527C66.7496 19.527 66.5307 19.6306 66.3685 19.838C66.2063 20.0437 66.1253 20.3167 66.1253 20.6569C66.1253 21.0019 66.2063 21.2749 66.3685 21.4758C66.5307 21.6766 66.7431 21.7771 67.0058 21.7771C67.2766 21.7771 67.4915 21.6799 67.6504 21.4855C67.8094 21.2895 67.8888 21.0181 67.8888 20.6715C67.8888 20.3102 67.8118 20.0291 67.6577 19.8283C67.5037 19.6274 67.2929 19.527 67.0253 19.527Z" fill="white"/>
<path d="M71.3138 19.5488H70.0829V20.4042H71.214V21.0408H70.0829V22.3943H69.2972V18.9098H71.3138V19.5488Z" fill="white"/>
<path d="M75.7165 19.5488H74.7217V22.3943H73.9335V19.5488H72.9435V18.9098H75.7165V19.5488Z" fill="white"/>
<path d="M79.2047 22.3943H78.4166V20.9752H76.9717V22.3943H76.186V18.9098H76.9717V20.2997H78.4166V18.9098H79.2047V22.3943Z" fill="white"/>
<path d="M82.0969 22.3943H80.005V18.9098H82.0167V19.5488H80.7907V20.324H81.9315V20.9606H80.7907V21.7576H82.0969V22.3943Z" fill="white"/>
<path d="M68.0177 28.9057C67.7631 29.0288 67.4307 29.0904 67.0204 29.0904C66.4853 29.0904 66.0645 28.9332 65.758 28.619C65.4515 28.3047 65.2982 27.8859 65.2982 27.3627C65.2982 26.8054 65.4701 26.3535 65.8139 26.0068C66.1593 25.6601 66.6069 25.4868 67.1566 25.4868C67.4972 25.4868 67.7842 25.5297 68.0177 25.6156V26.3713C67.7842 26.232 67.5183 26.1623 67.2199 26.1623C66.8923 26.1623 66.628 26.2652 66.4269 26.4709C66.2258 26.6766 66.1253 26.9553 66.1253 27.3068C66.1253 27.6437 66.2201 27.9127 66.4099 28.1135C66.5996 28.3128 66.855 28.4124 67.1761 28.4124C67.4826 28.4124 67.7631 28.3379 68.0177 28.1889V28.9057Z" fill="white"/>
<path d="M70.7178 29.0296H68.6259V25.5451H70.6375V26.1842H69.4116V26.9593H70.5524V27.596H69.4116V28.393H70.7178V29.0296Z" fill="white"/>
<path d="M74.4152 29.0296H73.6222L72.1846 26.8403C72.1003 26.7123 72.0419 26.6159 72.0094 26.5511H71.9997C72.0127 26.6742 72.0192 26.8621 72.0192 27.1148V29.0296H71.2773V25.5451H72.1238L73.5079 27.6664C73.5711 27.762 73.6295 27.8568 73.683 27.9507H73.6927C73.6797 27.8697 73.6733 27.7102 73.6733 27.472V25.5451H74.4152V29.0296Z" fill="white"/>
<path d="M77.6625 26.1842H76.6676V29.0296H75.8795V26.1842H74.8895V25.5451H77.6625V26.1842Z" fill="white"/>
<path d="M81.0583 29.0296H80.1558L79.6134 28.133C79.5728 28.0649 79.5339 28.0042 79.4966 27.9507C79.4593 27.8973 79.4212 27.8519 79.3823 27.8147C79.345 27.7758 79.3053 27.7466 79.2631 27.7272C79.2226 27.7061 79.178 27.6956 79.1293 27.6956H78.9177V29.0296H78.132V25.5451H79.3774C80.2239 25.5451 80.6472 25.861 80.6472 26.4928C80.6472 26.6143 80.6285 26.7269 80.5912 26.8305C80.5539 26.9326 80.5012 27.0249 80.4331 27.1075C80.365 27.1902 80.2823 27.2614 80.185 27.3214C80.0893 27.3813 79.9823 27.4283 79.8639 27.4623V27.472C79.9158 27.4882 79.9661 27.515 80.0147 27.5522C80.0634 27.5879 80.1104 27.63 80.1558 27.6786C80.2012 27.7272 80.2442 27.7798 80.2847 27.8365C80.3269 27.8916 80.365 27.9459 80.3991 27.9993L81.0583 29.0296ZM78.9177 26.1331V27.1027H79.2582C79.4269 27.1027 79.5623 27.0541 79.6645 26.9569C79.7682 26.8581 79.8201 26.7358 79.8201 26.59C79.8201 26.2854 79.6377 26.1331 79.2728 26.1331H78.9177Z" fill="white"/>
<path d="M84.454 29.0296H83.5978L83.3497 28.2545H82.1091L81.8634 29.0296H81.0121L82.2818 25.5451H83.2134L84.454 29.0296ZM83.1697 27.6518L82.7951 26.4806C82.7675 26.3931 82.748 26.2887 82.7367 26.1672H82.7172C82.7091 26.2692 82.6888 26.3705 82.6564 26.4709L82.2769 27.6518H83.1697Z" fill="white"/>
<path d="M86.9668 29.0296H84.8894V25.5451H85.6751V28.393H86.9668V29.0296Z" fill="white"/>
<path d="M65.5172 35.665V32.1804H66.7869C67.1761 32.1804 67.4753 32.2517 67.6845 32.3943C67.8937 32.5368 67.9983 32.7377 67.9983 32.9969C67.9983 33.1848 67.9342 33.3492 67.8061 33.4902C67.6796 33.6311 67.5175 33.7291 67.3196 33.7842V33.7939C67.5677 33.8247 67.7656 33.9162 67.9131 34.0685C68.0623 34.2208 68.1369 34.4063 68.1369 34.625C68.1369 34.9441 68.0226 35.1976 67.794 35.3855C67.5653 35.5718 67.2531 35.665 66.8574 35.665H65.5172ZM66.3028 32.7588V33.5849H66.6483C66.8104 33.5849 66.9377 33.5461 67.0302 33.4683C67.1242 33.3889 67.1712 33.2804 67.1712 33.1427C67.1712 32.8867 66.9799 32.7588 66.5972 32.7588H66.3028ZM66.3028 34.1681V35.0866H66.7285C66.9101 35.0866 67.052 35.0445 67.1542 34.9603C67.258 34.876 67.3099 34.761 67.3099 34.6152C67.3099 34.4759 67.2588 34.3666 67.1566 34.2872C67.0561 34.2078 66.915 34.1681 66.7334 34.1681H66.3028Z" fill="white"/>
<path d="M71.7808 35.665H70.9246L70.6764 34.8898H69.4359L69.1902 35.665H68.3388L69.6086 32.1804H70.5402L71.7808 35.665ZM70.4964 34.2872L70.1218 33.116C70.0943 33.0285 70.0748 32.924 70.0635 32.8025H70.044C70.0359 32.9046 70.0156 33.0058 69.9832 33.1062L69.6037 34.2872H70.4964Z" fill="white"/>
<path d="M75.3541 35.665H74.5611L73.1235 33.4756C73.0392 33.3476 72.9808 33.2512 72.9484 33.1864H72.9386C72.9516 33.3095 72.9581 33.4975 72.9581 33.7502V35.665H72.2162V32.1804H73.0627L74.4468 34.3018C74.51 34.3973 74.5684 34.4921 74.6219 34.5861H74.6317C74.6187 34.5051 74.6122 34.3455 74.6122 34.1074V32.1804H75.3541V35.665Z" fill="white"/>
<path d="M79.0515 35.665H78.059L77.0422 34.1511C77.0228 34.122 76.992 34.058 76.9498 33.9591H76.9376V35.665H76.152V32.1804H76.9376V33.8279H76.9498C76.9693 33.7826 77.0017 33.7178 77.0471 33.6335L78.0104 32.1804H78.9469L77.7306 33.8425L79.0515 35.665Z" fill="white"/>
<path d="M82.238 35.7257C81.7386 35.7257 81.3315 35.5637 81.0169 35.2397C80.7023 34.9141 80.545 34.4905 80.545 33.9689C80.545 33.4181 80.7047 32.9726 81.0242 32.6324C81.3437 32.2922 81.7669 32.1221 82.294 32.1221C82.7918 32.1221 83.194 32.2849 83.5005 32.6105C83.8086 32.9361 83.9627 33.3654 83.9627 33.8984C83.9627 34.4459 83.8029 34.8874 83.4835 35.2227C83.1656 35.558 82.7505 35.7257 82.238 35.7257ZM82.2721 32.7976C81.9964 32.7976 81.7775 32.9013 81.6153 33.1087C81.4531 33.3144 81.3721 33.5874 81.3721 33.9276C81.3721 34.2726 81.4531 34.5456 81.6153 34.7464C81.7775 34.9473 81.9899 35.0478 82.2526 35.0478C82.5234 35.0478 82.7383 34.9506 82.8972 34.7562C83.0561 34.5602 83.1356 34.2888 83.1356 33.9421C83.1356 33.5809 83.0586 33.2998 82.9045 33.099C82.7505 32.8981 82.5397 32.7976 82.2721 32.7976Z" fill="white"/>
<path d="M87.6819 35.665H86.8889L85.4513 33.4756C85.367 33.3476 85.3086 33.2512 85.2762 33.1864H85.2665C85.2794 33.3095 85.2859 33.4975 85.2859 33.7502V35.665H84.544V32.1804H85.3905L86.7746 34.3018C86.8378 34.3973 86.8962 34.4921 86.9497 34.5861H86.9595C86.9465 34.5051 86.94 34.3455 86.94 34.1074V32.1804H87.6819V35.665Z" fill="white"/>
<path d="M68.0177 42.1764C67.7631 42.2995 67.4307 42.3611 67.0204 42.3611C66.4853 42.3611 66.0645 42.2039 65.758 41.8896C65.4515 41.5754 65.2982 41.1566 65.2982 40.6334C65.2982 40.0761 65.4701 39.6241 65.8139 39.2775C66.1593 38.9308 66.6069 38.7575 67.1566 38.7575C67.4972 38.7575 67.7842 38.8004 68.0177 38.8862V39.642C67.7842 39.5026 67.5183 39.433 67.2199 39.433C66.8923 39.433 66.628 39.5359 66.4269 39.7416C66.2258 39.9473 66.1253 40.2259 66.1253 40.5775C66.1253 40.9144 66.2201 41.1833 66.4099 41.3842C66.5996 41.5835 66.855 41.6831 67.1761 41.6831C67.4826 41.6831 67.7631 41.6086 68.0177 41.4595V42.1764Z" fill="white"/>
<path d="M71.5521 42.3003H70.6497L70.1072 41.4037C70.0667 41.3356 70.0278 41.2749 69.9905 41.2214C69.9532 41.168 69.9151 41.1226 69.8762 41.0853C69.8389 41.0465 69.7991 41.0173 69.757 40.9979C69.7164 40.9768 69.6718 40.9663 69.6232 40.9663H69.4116V42.3003H68.6259V38.8158H69.8713C70.7178 38.8158 71.141 39.1317 71.141 39.7635C71.141 39.885 71.1224 39.9975 71.0851 40.1012C71.0478 40.2033 70.9951 40.2956 70.927 40.3782C70.8589 40.4608 70.7762 40.5321 70.6789 40.5921C70.5832 40.652 70.4762 40.699 70.3578 40.733V40.7427C70.4097 40.7589 70.4599 40.7856 70.5086 40.8229C70.5572 40.8585 70.6043 40.9007 70.6497 40.9493C70.6951 40.9979 70.7381 41.0505 70.7786 41.1072C70.8208 41.1623 70.8589 41.2166 70.8929 41.27L71.5521 42.3003ZM69.4116 39.4038V40.3734H69.7521C69.9208 40.3734 70.0562 40.3248 70.1583 40.2276C70.2621 40.1288 70.314 40.0064 70.314 39.8607C70.314 39.5561 70.1316 39.4038 69.7667 39.4038H69.4116Z" fill="white"/>
<path d="M73.9725 42.3003H71.8805V38.8158H73.8922V39.4549H72.6662V40.23H73.807V40.8666H72.6662V41.6637H73.9725V42.3003Z" fill="white"/>
<path d="M74.5319 42.3003V38.8158H75.7676C77.0066 38.8158 77.626 39.382 77.626 40.5143C77.626 41.057 77.4566 41.4903 77.1177 41.8143C76.7803 42.1383 76.3303 42.3003 75.7676 42.3003H74.5319ZM75.3176 39.4549V41.6637H75.7068C76.0474 41.6637 76.3141 41.5616 76.5071 41.3575C76.7017 41.1534 76.799 40.8756 76.799 40.524C76.799 40.1919 76.7025 39.9311 76.5095 39.7416C76.3182 39.5504 76.049 39.4549 75.702 39.4549H75.3176Z" fill="white"/>
<path d="M78.9907 42.3003H78.205V38.8158H78.9907V42.3003Z" fill="white"/>
<path d="M82.2356 39.4549H81.2407V42.3003H80.4526V39.4549H79.4626V38.8158H82.2356V39.4549Z" fill="white"/>
<path d="M87.1492 42.3003H86.293L86.0449 41.5252H84.8043L84.5586 42.3003H83.7072L84.977 38.8158H85.9086L87.1492 42.3003ZM85.8649 40.9225L85.4902 39.7513C85.4627 39.6638 85.4432 39.5593 85.4319 39.4378H85.4124C85.4043 39.5399 85.384 39.6411 85.3516 39.7416L84.9721 40.9225H85.8649Z" fill="white"/>
<path d="M90.7225 42.3003H89.9295L88.4919 40.1109C88.4076 39.983 88.3492 39.8866 88.3168 39.8218H88.3071C88.32 39.9449 88.3265 40.1328 88.3265 40.3855V42.3003H87.5846V38.8158H88.4311L89.8152 40.9371C89.8784 41.0327 89.9368 41.1275 89.9903 41.2214H90.0001C89.9871 41.1404 89.9806 40.9809 89.9806 40.7427V38.8158H90.7225V42.3003Z" fill="white"/>
<path d="M91.5204 42.3003V38.8158H92.7561C93.995 38.8158 94.6145 39.382 94.6145 40.5143C94.6145 41.057 94.445 41.4903 94.1061 41.8143C93.7688 42.1383 93.3188 42.3003 92.7561 42.3003H91.5204ZM92.3061 39.4549V41.6637H92.6953C93.0358 41.6637 93.3026 41.5616 93.4955 41.3575C93.6901 41.1534 93.7874 40.8756 93.7874 40.524C93.7874 40.1919 93.691 39.9311 93.498 39.7416C93.3066 39.5504 93.0374 39.4549 92.6904 39.4549H92.3061Z" fill="white"/>
<path d="M67.5337 46.0902H66.3028V46.9455H67.4339V47.5822H66.3028V48.9356H65.5172V45.4511H67.5337V46.0902Z" fill="white"/>
<path d="M68.8959 48.9356H68.1102V45.4511H68.8959V48.9356Z" fill="white"/>
<path d="M72.8292 48.9356H72.0362L70.5986 46.7463C70.5143 46.6183 70.4559 46.5219 70.4235 46.4571H70.4137C70.4267 46.5802 70.4332 46.7681 70.4332 47.0209V48.9356H69.6913V45.4511H70.5378L71.9219 47.5725C71.9851 47.668 72.0435 47.7628 72.097 47.8568H72.1067C72.0938 47.7758 72.0873 47.6162 72.0873 47.3781V45.4511H72.8292V48.9356Z" fill="white"/>
<path d="M76.6944 48.9356H75.8382L75.59 48.1605H74.3495L74.1038 48.9356H73.2524L74.5222 45.4511H75.4538L76.6944 48.9356ZM75.41 47.5579L75.0354 46.3866C75.0079 46.2992 74.9884 46.1947 74.9771 46.0732H74.9576C74.9495 46.1752 74.9292 46.2765 74.8968 46.3769L74.5173 47.5579H75.41Z" fill="white"/>
<path d="M80.2677 48.9356H79.4747L78.0371 46.7463C77.9528 46.6183 77.8944 46.5219 77.862 46.4571H77.8523C77.8652 46.5802 77.8717 46.7681 77.8717 47.0209V48.9356H77.1298V45.4511H77.9763L79.3604 47.5725C79.4236 47.668 79.482 47.7628 79.5355 47.8568H79.5453C79.5323 47.7758 79.5258 47.6162 79.5258 47.3781V45.4511H80.2677V48.9356Z" fill="white"/>
<path d="M83.5662 48.8117C83.3116 48.9348 82.9791 48.9964 82.5688 48.9964C82.0337 48.9964 81.6129 48.8393 81.3064 48.525C80.9999 48.2107 80.8466 47.792 80.8466 47.2687C80.8466 46.7114 81.0185 46.2595 81.3623 45.9128C81.7077 45.5661 82.1553 45.3928 82.7051 45.3928C83.0456 45.3928 83.3326 45.4357 83.5662 45.5216V46.2773C83.3326 46.138 83.0667 46.0683 82.7683 46.0683C82.4407 46.0683 82.1764 46.1712 81.9753 46.3769C81.7742 46.5827 81.6737 46.8613 81.6737 47.2128C81.6737 47.5498 81.7686 47.8187 81.9583 48.0196C82.148 48.2188 82.4034 48.3184 82.7245 48.3184C83.031 48.3184 83.3116 48.2439 83.5662 48.0949V48.8117Z" fill="white"/>
<path d="M84.96 48.9356H84.1743V45.4511H84.96V48.9356Z" fill="white"/>
<path d="M88.8228 48.9356H87.9665L87.7184 48.1605H86.4778L86.2322 48.9356H85.3808L86.6505 45.4511H87.5822L88.8228 48.9356ZM87.5384 47.5579L87.1638 46.3866C87.1362 46.2992 87.1168 46.1947 87.1054 46.0732H87.086C87.0779 46.1752 87.0576 46.2765 87.0251 46.3769L86.6457 47.5579H87.5384Z" fill="white"/>
<path d="M91.3355 48.9356H89.2582V45.4511H90.0439V48.299H91.3355V48.9356Z" fill="white"/>
<path d="M66.3028 55.571H65.5172V52.0865H66.3028V55.571Z" fill="white"/>
<path d="M70.2362 55.571H69.4432L68.0056 53.3816C67.9213 53.2536 67.8629 53.1573 67.8304 53.0925H67.8207C67.8337 53.2156 67.8402 53.4035 67.8402 53.6562V55.571H67.0983V52.0865H67.9448L69.3288 54.2078C69.3921 54.3034 69.4505 54.3981 69.504 54.4921H69.5137C69.5007 54.4111 69.4943 54.2515 69.4943 54.0134V52.0865H70.2362V55.571Z" fill="white"/>
<path d="M70.8735 55.4373V54.6598C71.0146 54.778 71.1678 54.8671 71.3332 54.9271C71.4986 54.9854 71.6657 55.0145 71.8343 55.0145C71.9332 55.0145 72.0192 55.0056 72.0921 54.9878C72.1667 54.97 72.2284 54.9457 72.277 54.9149C72.3273 54.8825 72.3646 54.8452 72.3889 54.8031C72.4132 54.7594 72.4254 54.7124 72.4254 54.6622C72.4254 54.5942 72.4059 54.5334 72.367 54.4799C72.3281 54.4265 72.2746 54.3771 72.2065 54.3317C72.14 54.2864 72.0605 54.2426 71.9681 54.2005C71.8757 54.1584 71.7759 54.1155 71.6689 54.0717C71.3965 53.9583 71.1929 53.8198 71.0583 53.6562C70.9254 53.4926 70.8589 53.295 70.8589 53.0633C70.8589 52.8819 70.8954 52.7263 70.9683 52.5967C71.0413 52.4655 71.1402 52.3578 71.2651 52.2736C71.3916 52.1893 71.5375 52.1278 71.7029 52.0889C71.8684 52.0484 72.0435 52.0281 72.2284 52.0281C72.41 52.0281 72.5705 52.0395 72.71 52.0622C72.8511 52.0832 72.9808 52.1164 73.0992 52.1618V52.8883C73.0408 52.8478 72.9768 52.8122 72.907 52.7814C72.8389 52.7506 72.7684 52.7255 72.6954 52.7061C72.6224 52.685 72.5495 52.6696 72.4765 52.6599C72.4051 52.6502 72.337 52.6453 72.2721 52.6453C72.183 52.6453 72.1019 52.6543 72.0289 52.6721C71.9559 52.6883 71.8943 52.7118 71.844 52.7425C71.7938 52.7733 71.7548 52.8106 71.7273 52.8543C71.6997 52.8964 71.6859 52.9442 71.6859 52.9977C71.6859 53.056 71.7013 53.1087 71.7321 53.1556C71.763 53.201 71.8067 53.2447 71.8635 53.2868C71.9203 53.3273 71.9892 53.3678 72.0703 53.4083C72.1513 53.4472 72.243 53.4877 72.3451 53.5298C72.4846 53.5882 72.6095 53.6505 72.7197 53.7169C72.8316 53.7817 72.9273 53.8555 73.0068 53.9381C73.0862 54.0207 73.147 54.1155 73.1892 54.2224C73.2314 54.3277 73.2524 54.4508 73.2524 54.5917C73.2524 54.7861 73.2151 54.9497 73.1405 55.0826C73.0676 55.2138 72.9678 55.3207 72.8413 55.4033C72.7149 55.4843 72.5673 55.5426 72.3986 55.5783C72.2316 55.6139 72.0548 55.6317 71.8684 55.6317C71.677 55.6317 71.4946 55.6155 71.321 55.5831C71.1491 55.5507 71 55.5021 70.8735 55.4373Z" fill="white"/>
<path d="M76.276 52.7255H75.2811V55.571H74.493V52.7255H73.503V52.0865H76.276V52.7255Z" fill="white"/>
<path d="M77.5312 55.571H76.7455V52.0865H77.5312V55.571Z" fill="white"/>
<path d="M80.7761 52.7255H79.7812V55.571H78.9931V52.7255H78.0031V52.0865H80.7761V52.7255Z" fill="white"/>
<path d="M84.0891 54.062C84.0891 55.1085 83.601 55.6317 82.6248 55.6317C81.6777 55.6317 81.2042 55.1206 81.2042 54.0984V52.0865H81.9923V54.1082C81.9923 54.6719 82.2129 54.9538 82.654 54.9538C83.087 54.9538 83.3035 54.6816 83.3035 54.1373V52.0865H84.0891V54.062Z" fill="white"/>
<path d="M87.3 52.7255H86.3051V55.571H85.517V52.7255H84.527V52.0865H87.3V52.7255Z" fill="white"/>
<path d="M88.5552 55.571H87.7695V52.0865H88.5552V55.571Z" fill="white"/>
<path d="M90.8247 55.6317C90.3252 55.6317 89.9182 55.4697 89.6036 55.1458C89.289 54.8201 89.1317 54.3965 89.1317 53.8749C89.1317 53.3241 89.2914 52.8786 89.6109 52.5384C89.9303 52.1982 90.3536 52.0281 90.8806 52.0281C91.3785 52.0281 91.7807 52.191 92.0871 52.5166C92.3953 52.8422 92.5493 53.2715 92.5493 53.8044C92.5493 54.352 92.3896 54.7934 92.0701 55.1287C91.7523 55.4641 91.3371 55.6317 90.8247 55.6317ZM90.8587 52.7037C90.5831 52.7037 90.3641 52.8073 90.202 53.0147C90.0398 53.2204 89.9587 53.4934 89.9587 53.8336C89.9587 54.1786 90.0398 54.4516 90.202 54.6525C90.3641 54.8533 90.5766 54.9538 90.8393 54.9538C91.1101 54.9538 91.325 54.8566 91.4839 54.6622C91.6428 54.4662 91.7223 54.1948 91.7223 53.8482C91.7223 53.4869 91.6452 53.2059 91.4912 53.005C91.3371 52.8041 91.1263 52.7037 90.8587 52.7037Z" fill="white"/>
<path d="M96.2686 55.571H95.4756L94.038 53.3816C93.9537 53.2536 93.8953 53.1573 93.8629 53.0925H93.8531C93.8661 53.2156 93.8726 53.4035 93.8726 53.6562V55.571H93.1307V52.0865H93.9772L95.3613 54.2078C95.4245 54.3034 95.4829 54.3981 95.5364 54.4921H95.5461C95.5332 54.4111 95.5267 54.2515 95.5267 54.0134V52.0865H96.2686V55.571Z" fill="white"/>
<path d="M96.9059 55.4373V54.6598C97.047 54.778 97.2002 54.8671 97.3656 54.9271C97.531 54.9854 97.6981 55.0145 97.8667 55.0145C97.9656 55.0145 98.0516 55.0056 98.1246 54.9878C98.1992 54.97 98.2608 54.9457 98.3094 54.9149C98.3597 54.8825 98.397 54.8452 98.4213 54.8031C98.4457 54.7594 98.4578 54.7124 98.4578 54.6622C98.4578 54.5942 98.4383 54.5334 98.3994 54.4799C98.3605 54.4265 98.307 54.3771 98.2389 54.3317C98.1724 54.2864 98.0929 54.2426 98.0005 54.2005C97.9081 54.1584 97.8083 54.1155 97.7013 54.0717C97.4289 53.9583 97.2253 53.8198 97.0908 53.6562C96.9578 53.4926 96.8913 53.295 96.8913 53.0633C96.8913 52.8819 96.9278 52.7263 97.0008 52.5967C97.0737 52.4655 97.1726 52.3578 97.2975 52.2736C97.424 52.1893 97.57 52.1278 97.7354 52.0889C97.9008 52.0484 98.0759 52.0281 98.2608 52.0281C98.4424 52.0281 98.6029 52.0395 98.7424 52.0622C98.8835 52.0832 99.0132 52.1164 99.1316 52.1618V52.8883C99.0732 52.8478 99.0092 52.8122 98.9394 52.7814C98.8713 52.7506 98.8008 52.7255 98.7278 52.7061C98.6548 52.685 98.5819 52.6696 98.5089 52.6599C98.4375 52.6502 98.3694 52.6453 98.3046 52.6453C98.2154 52.6453 98.1343 52.6543 98.0613 52.6721C97.9883 52.6883 97.9267 52.7118 97.8764 52.7425C97.8262 52.7733 97.7873 52.8106 97.7597 52.8543C97.7321 52.8964 97.7183 52.9442 97.7183 52.9977C97.7183 53.056 97.7337 53.1087 97.7645 53.1556C97.7954 53.201 97.8391 53.2447 97.8959 53.2868C97.9527 53.3273 98.0216 53.3678 98.1027 53.4083C98.1838 53.4472 98.2754 53.4877 98.3775 53.5298C98.517 53.5882 98.6419 53.6505 98.7521 53.7169C98.864 53.7817 98.9597 53.8555 99.0392 53.9381C99.1186 54.0207 99.1794 54.1155 99.2216 54.2224C99.2638 54.3277 99.2849 54.4508 99.2849 54.5917C99.2849 54.7861 99.2476 54.9497 99.173 55.0826C99.1 55.2138 99.0003 55.3207 98.8738 55.4033C98.7473 55.4843 98.5997 55.5426 98.4311 55.5783C98.264 55.6139 98.0873 55.6317 97.9008 55.6317C97.7094 55.6317 97.527 55.6155 97.3535 55.5831C97.1816 55.5507 97.0324 55.5021 96.9059 55.4373Z" fill="white"/>
</svg>
