<svg width="100%" height="100%" viewBox="0 0 12 12" fill="none" xmlns="http://www.w3.org/2000/svg">
<path fill-rule="evenodd" clip-rule="evenodd" d="M12 0V12H0V11.7303L10.3347 11.7519C10.3394 11.7196 10.3445 11.6879 10.3501 11.6568L1.37143 9.72012L1.39592 9.57303L10.375 11.5342C10.3869 11.4822 10.4002 11.432 10.415 11.3835L1.9102 7.88151L1.98367 7.75894L10.4541 11.2683C10.4756 11.2113 10.4994 11.1569 10.5256 11.1052L2.86531 6.0429L2.96327 5.92033L10.5879 10.9949C10.6213 10.9414 10.6579 10.8911 10.6978 10.844L4.21224 4.35138L4.3102 4.25332L10.7909 10.7452C10.8319 10.7062 10.8757 10.6698 10.9224 10.6358L5.85306 2.97855L5.97551 2.88049L11.0289 10.5659L11.1551 10.4923L7.53061 2.05924L7.64082 1.99796L11.2898 10.4416C11.3368 10.4239 11.3858 10.4076 11.4367 10.3926L9.50204 1.39734L9.64898 1.36057L11.5592 10.3601C11.6218 10.3452 11.687 10.3321 11.7551 10.3207V0H12ZM11.7551 11.7549L10.5796 11.7524C10.6082 11.3773 10.8833 10.6174 11.7551 10.5781V11.7549Z" fill="#ECEEF0"/>
</svg>
