<svg width="100%" height="100%" viewBox="0 0 15 15" fill="none" xmlns="http://www.w3.org/2000/svg">
<g clip-path="url(#clip0_187_568)">
<path opacity="0.92" d="M6.0938 0.9375C8.94155 0.9375 11.2501 3.24615 11.2501 6.09402C11.2501 7.26439 10.8602 8.34368 10.2032 9.2091L13.8554 12.8656C14.1298 13.1404 14.1296 13.5856 13.8548 13.86C13.5801 14.1344 13.1349 14.1342 12.8604 13.8594L9.20874 10.2036C8.34336 10.8606 7.26411 11.2505 6.0938 11.2505C3.24606 11.2505 0.9375 8.94189 0.9375 6.09402C0.9375 3.24615 3.24606 0.9375 6.0938 0.9375ZM6.0938 2.34375C4.02272 2.34375 2.34375 4.02279 2.34375 6.09402C2.34375 8.16526 4.02272 9.8443 6.0938 9.8443C8.16489 9.8443 9.84385 8.16526 9.84385 6.09402C9.84385 4.02279 8.16489 2.34375 6.0938 2.34375Z" fill="#323954"/>
</g>
<defs>
<clipPath id="clip0_187_568">
<rect width="15" height="15" fill="white"/>
</clipPath>
</defs>
</svg>
