<svg  width="100%" height="100%" viewBox="0 0 19 19" fill="none" xmlns="http://www.w3.org/2000/svg">
<path d="M10.6875 0.791667C10.9014 1.50482 11.0511 2.21797 12.2362 2.90219C13.5645 3.26283 14.2139 2.90534 14.818 2.50259C15.4503 2.0811 15.6362 2.20507 15.8893 2.45446L16.2175 2.78249C16.2525 2.81747 16.2875 2.85246 16.3312 2.89619L16.4974 3.06238C16.7773 3.34228 16.8893 3.45424 16.4974 4.18197L16.4028 4.35608C16.0795 4.95157 15.7774 5.56519 16.1002 6.76985C16.7846 7.96375 17.4965 8.17012 18.2083 8.3125C18.9534 8.46153 18.9973 8.68067 18.9998 9.03594L19 9.89583C19 10.2917 19 10.45 18.2083 10.6875L18.0184 10.7437C17.3687 10.9362 16.7213 11.1564 16.0978 12.2362C15.7372 13.5645 16.0947 14.2139 16.4974 14.818C16.9452 15.4898 16.7773 15.6577 16.4974 15.9376L16.3312 16.1038C16.2438 16.1913 16.1913 16.2438 16.1038 16.3312L15.9376 16.4974C15.6577 16.7773 15.5458 16.8893 14.818 16.4974L14.6439 16.4028C14.0483 16.0795 13.4345 15.7772 12.2293 16.1005C11.0362 16.7848 10.8299 17.4966 10.6875 18.2083C10.5385 18.9534 10.3193 18.9973 9.96406 18.9998L9.10417 19C8.70833 19 8.54999 19 8.3125 18.2083C8.09856 17.4952 7.94885 16.782 6.76384 16.0978C5.43553 15.7372 4.78612 16.0947 4.18197 16.4974C3.54972 16.9189 3.36378 16.7949 3.11074 16.5455L2.89619 16.3312C2.85246 16.2875 2.81747 16.2525 2.78249 16.2175L2.50259 15.9376C2.22269 15.6577 2.11073 15.5458 2.50259 14.818L2.64419 14.5567C2.94835 13.9874 3.20677 13.3764 2.89998 12.231C2.21585 11.0364 1.50376 10.8299 0.791667 10.6875C0.0465687 10.5385 0.00273933 10.3193 0.000161137 9.96406L0 9.10417C0 8.70833 9.70704e-08 8.54999 0.791667 8.3125C1.50482 8.09856 2.21797 7.94885 2.90219 6.76384C3.26283 5.43553 2.90534 4.78612 2.50259 4.18197C2.05476 3.51021 2.22269 3.34228 2.50259 3.06238L2.72891 2.83606C2.76609 2.79889 2.79889 2.76609 2.83606 2.72891L3.06238 2.50259C3.34228 2.22269 3.45424 2.11073 4.18197 2.50259L4.44332 2.64419C5.01251 2.94828 5.62331 3.20665 6.76822 2.9002C7.96356 2.21602 8.17006 1.50384 8.3125 0.791667C8.46153 0.0465687 8.68067 0.00273933 9.03594 0.000161137L9.89583 0C10.2917 0 10.45 9.70704e-08 10.6875 0.791667ZM9.5 5.02279C7.02655 5.02279 5.02143 7.02791 5.02143 9.50136C5.02143 11.9748 7.02655 13.9799 9.5 13.9799C11.9734 13.9799 13.9786 11.9748 13.9786 9.50136C13.9786 7.02791 11.9734 5.02279 9.5 5.02279Z" fill="#5A77DF"/>
</svg>
