<svg width="679" height="90" viewBox="0 0 679 90" fill="none" xmlns="http://www.w3.org/2000/svg">
<path fill-rule="evenodd" clip-rule="evenodd" d="M84.6535 0V89.9082H0V87.8878L72.9056 88.0492C72.9387 87.8073 72.9749 87.5698 73.0141 87.3367L9.67468 72.8265L9.84744 71.7245L73.1898 86.4184C73.2738 86.0288 73.3677 85.6525 73.4719 85.2893L13.4754 59.051L13.9937 58.1327L73.7479 84.426C73.8994 83.9987 74.0674 83.5916 74.2527 83.2041L20.2132 45.2755L20.9042 44.3571L74.6917 82.3775C74.9276 81.9767 75.1857 81.6 75.467 81.2467L29.7151 32.602L30.4061 31.8673L76.124 80.5066C76.413 80.2145 76.722 79.9415 77.0519 79.6872L41.2902 22.3163L42.154 21.5816L77.8027 79.1633L78.6932 78.6122L53.1244 15.4286L53.9018 14.9694L79.6434 78.2325C79.9752 78.0995 80.3206 77.9771 80.6799 77.8649L67.0317 10.4694L68.0683 10.1939L81.5437 77.6215C81.9853 77.5098 82.4458 77.4116 82.9258 77.3265V0H84.6535ZM82.9258 88.0714L74.6333 88.0531C74.8348 85.2429 76.7755 79.549 82.9258 79.2551V88.0714Z" fill="#0188CC"/>
<path d="M131.969 38.4023C130.742 38.9961 129.141 39.293 127.164 39.293C124.586 39.293 122.559 38.5352 121.082 37.0195C119.605 35.5039 118.867 33.4844 118.867 30.9609C118.867 28.2734 119.695 26.0938 121.352 24.4219C123.016 22.75 125.172 21.9141 127.82 21.9141C129.461 21.9141 130.844 22.1211 131.969 22.5352V26.1797C130.844 25.5078 129.562 25.1719 128.125 25.1719C126.547 25.1719 125.273 25.668 124.305 26.6602C123.336 27.6523 122.852 28.9961 122.852 30.6914C122.852 32.3164 123.309 33.6133 124.223 34.582C125.137 35.543 126.367 36.0234 127.914 36.0234C129.391 36.0234 130.742 35.6641 131.969 34.9453V38.4023Z" fill="black"/>
<path d="M149.43 39H145.645V25.5H138.684V39H134.898V22.1953H149.43V39Z" fill="black"/>
<path d="M157.059 33.2109V39H153.273V22.1953H159.203C163.438 22.1953 165.555 23.9805 165.555 27.5508C165.555 29.2383 164.945 30.6055 163.727 31.6523C162.516 32.6914 160.895 33.2109 158.863 33.2109H157.059ZM157.059 25.1016V30.3398H158.547C160.562 30.3398 161.57 29.457 161.57 27.6914C161.57 25.9648 160.562 25.1016 158.547 25.1016H157.059Z" fill="black"/>
<path d="M181.293 39H177.168L175.973 35.2617H169.996L168.812 39H164.711L170.828 22.1953H175.316L181.293 39ZM175.105 32.3555L173.301 26.707C173.168 26.2852 173.074 25.7812 173.02 25.1953H172.926C172.887 25.6875 172.789 26.1758 172.633 26.6602L170.805 32.3555H175.105Z" fill="black"/>
<path d="M183.391 39V22.1953H189.508C191.383 22.1953 192.824 22.5391 193.832 23.2266C194.84 23.9141 195.344 24.8828 195.344 26.1328C195.344 27.0391 195.035 27.832 194.418 28.5117C193.809 29.1914 193.027 29.6641 192.074 29.9297V29.9766C193.27 30.125 194.223 30.5664 194.934 31.3008C195.652 32.0352 196.012 32.9297 196.012 33.9844C196.012 35.5234 195.461 36.7461 194.359 37.6523C193.258 38.5508 191.754 39 189.848 39H183.391ZM187.176 24.9844V28.9688H188.84C189.621 28.9688 190.234 28.7812 190.68 28.4062C191.133 28.0234 191.359 27.5 191.359 26.8359C191.359 25.6016 190.438 24.9844 188.594 24.9844H187.176ZM187.176 31.7812V36.2109H189.227C190.102 36.2109 190.785 36.0078 191.277 35.6016C191.777 35.1953 192.027 34.6406 192.027 33.9375C192.027 33.2656 191.781 32.7383 191.289 32.3555C190.805 31.9727 190.125 31.7812 189.25 31.7812H187.176Z" fill="black"/>
<path d="M205.891 39.293C203.484 39.293 201.523 38.5117 200.008 36.9492C198.492 35.3789 197.734 33.3359 197.734 30.8203C197.734 28.1641 198.504 26.0156 200.043 24.375C201.582 22.7344 203.621 21.9141 206.16 21.9141C208.559 21.9141 210.496 22.6992 211.973 24.2695C213.457 25.8398 214.199 27.9102 214.199 30.4805C214.199 33.1211 213.43 35.25 211.891 36.8672C210.359 38.4844 208.359 39.293 205.891 39.293ZM206.055 25.1719C204.727 25.1719 203.672 25.6719 202.891 26.6719C202.109 27.6641 201.719 28.9805 201.719 30.6211C201.719 32.2852 202.109 33.6016 202.891 34.5703C203.672 35.5391 204.695 36.0234 205.961 36.0234C207.266 36.0234 208.301 35.5547 209.066 34.6172C209.832 33.6719 210.215 32.3633 210.215 30.6914C210.215 28.9492 209.844 27.5938 209.102 26.625C208.359 25.6562 207.344 25.1719 206.055 25.1719Z" fill="black"/>
<path d="M230.488 39H226.691V32.332C225.121 33.1914 223.531 33.6211 221.922 33.6211C218.445 33.6211 216.707 31.9492 216.707 28.6055V22.1953H220.48V28.2773C220.48 29.7305 221.281 30.457 222.883 30.457C224.148 30.457 225.418 30.0742 226.691 29.3086V22.1953H230.488V39Z" fill="black"/>
<path d="M248.98 39H245.184V32.1562H238.223V39H234.438V22.1953H238.223V28.8984H245.184V22.1953H248.98V39Z" fill="black"/>
<path d="M267.953 39H264.379V29.7656C264.379 28.7031 264.418 27.7969 264.496 27.0469H264.426C264.262 27.3672 263.98 27.832 263.582 28.4414L256.645 39H252.836V22.1953H256.41V31.4883C256.41 32.6367 256.379 33.4062 256.316 33.7969H256.363C256.402 33.7031 256.691 33.2461 257.23 32.4258L263.898 22.1953H267.953V39Z" fill="black"/>
<path d="M285.789 39H281.008L276.109 31.6992C276.016 31.5586 275.867 31.25 275.664 30.7734H275.605V39H271.82V22.1953H275.605V30.1406H275.664C275.758 29.9219 275.914 29.6094 276.133 29.2031L280.773 22.1953H285.285L279.426 30.2109L285.789 39Z" fill="black"/>
<path d="M306.086 38.4023C304.859 38.9961 303.258 39.293 301.281 39.293C298.703 39.293 296.676 38.5352 295.199 37.0195C293.723 35.5039 292.984 33.4844 292.984 30.9609C292.984 28.2734 293.812 26.0938 295.469 24.4219C297.133 22.75 299.289 21.9141 301.938 21.9141C303.578 21.9141 304.961 22.1211 306.086 22.5352V26.1797C304.961 25.5078 303.68 25.1719 302.242 25.1719C300.664 25.1719 299.391 25.668 298.422 26.6602C297.453 27.6523 296.969 28.9961 296.969 30.6914C296.969 32.3164 297.426 33.6133 298.34 34.582C299.254 35.543 300.484 36.0234 302.031 36.0234C303.508 36.0234 304.859 35.6641 306.086 34.9453V38.4023Z" fill="black"/>
<path d="M309.016 39V22.1953H315.133C317.008 22.1953 318.449 22.5391 319.457 23.2266C320.465 23.9141 320.969 24.8828 320.969 26.1328C320.969 27.0391 320.66 27.832 320.043 28.5117C319.434 29.1914 318.652 29.6641 317.699 29.9297V29.9766C318.895 30.125 319.848 30.5664 320.559 31.3008C321.277 32.0352 321.637 32.9297 321.637 33.9844C321.637 35.5234 321.086 36.7461 319.984 37.6523C318.883 38.5508 317.379 39 315.473 39H309.016ZM312.801 24.9844V28.9688H314.465C315.246 28.9688 315.859 28.7812 316.305 28.4062C316.758 28.0234 316.984 27.5 316.984 26.8359C316.984 25.6016 316.062 24.9844 314.219 24.9844H312.801ZM312.801 31.7812V36.2109H314.852C315.727 36.2109 316.41 36.0078 316.902 35.6016C317.402 35.1953 317.652 34.6406 317.652 33.9375C317.652 33.2656 317.406 32.7383 316.914 32.3555C316.43 31.9727 315.75 31.7812 314.875 31.7812H312.801Z" fill="black"/>
<path d="M334.492 39H324.414V22.1953H334.105V25.2773H328.199V29.0156H333.695V32.0859H328.199V35.9297H334.492V39Z" fill="black"/>
<path d="M353.652 43.582H350.324V39H339.66V43.582H336.379V35.9062H337.938C340.109 31.9766 341.309 27.4062 341.535 22.1953H351.262V35.9062H353.652V43.582ZM347.465 35.9062V25.3477H344.605C344.52 26.9023 344.223 28.6523 343.715 30.5977C343.207 32.543 342.578 34.3125 341.828 35.9062H347.465Z" fill="black"/>
<path d="M366.531 39H356.453V22.1953H366.145V25.2773H360.238V29.0156H365.734V32.0859H360.238V35.9297H366.531V39Z" fill="black"/>
<path d="M383.77 39H379.973V32.1562H373.012V39H369.227V22.1953H373.012V28.8984H379.973V22.1953H383.77V39Z" fill="black"/>
<path d="M402.742 39H399.168V29.7656C399.168 28.7031 399.207 27.7969 399.285 27.0469H399.215C399.051 27.3672 398.77 27.832 398.371 28.4414L391.434 39H387.625V22.1953H391.199V31.4883C391.199 32.6367 391.168 33.4062 391.105 33.7969H391.152C391.191 33.7031 391.48 33.2461 392.02 32.4258L398.688 22.1953H402.742V39Z" fill="black"/>
<path d="M421.727 39H418.152V29.7656C418.152 28.7031 418.191 27.7969 418.27 27.0469H418.199C418.035 27.3672 417.754 27.832 417.355 28.4414L410.418 39H406.609V22.1953H410.184V31.4883C410.184 32.6367 410.152 33.4062 410.09 33.7969H410.137C410.176 33.7031 410.465 33.2461 411.004 32.4258L417.672 22.1953H421.727V39ZM419.348 16.582C419.207 17.8242 418.672 18.8125 417.742 19.5469C416.812 20.2812 415.66 20.6484 414.285 20.6484C412.887 20.6484 411.723 20.2812 410.793 19.5469C409.863 18.8125 409.363 17.8242 409.293 16.582H411.988C412.027 17.1836 412.273 17.6797 412.727 18.0703C413.18 18.4531 413.715 18.6445 414.332 18.6445C414.941 18.6445 415.469 18.4492 415.914 18.0586C416.359 17.668 416.605 17.1758 416.652 16.582H419.348Z" fill="black"/>
<path d="M449.172 43.582H445.844V39H432.227V22.1953H436.012V35.7656H442.973V22.1953H446.77V35.7656H449.172V43.582Z" fill="black"/>
<path d="M451.938 39V22.1953H462.754V25.3008H455.723V28.9688H458.969C460.766 28.9688 462.152 29.3867 463.129 30.2227C464.113 31.0508 464.605 32.1992 464.605 33.668C464.605 35.3555 464.082 36.668 463.035 37.6055C461.996 38.5352 460.52 39 458.605 39H451.938ZM455.723 31.7227V36.2344H457.938C459.711 36.2344 460.598 35.4609 460.598 33.9141C460.598 32.4531 459.75 31.7227 458.055 31.7227H455.723Z" fill="black"/>
<path d="M477.777 33.2109V39H473.992V22.1953H479.922C484.156 22.1953 486.273 23.9805 486.273 27.5508C486.273 29.2383 485.664 30.6055 484.445 31.6523C483.234 32.6914 481.613 33.2109 479.582 33.2109H477.777ZM477.777 25.1016V30.3398H479.266C481.281 30.3398 482.289 29.457 482.289 27.6914C482.289 25.9648 481.281 25.1016 479.266 25.1016H477.777Z" fill="black"/>
<path d="M498.625 37.1719V39.0938H494.945V37.1719H494.547C492.398 37.1719 490.691 36.5391 489.426 35.2734C488.168 34 487.539 32.3555 487.539 30.3398C487.539 28.3711 488.156 26.7891 489.391 25.5938C490.633 24.3906 492.336 23.7891 494.5 23.7891H494.945V21.8672H498.625V23.7891H499.059C501.238 23.7891 502.945 24.3867 504.18 25.582C505.422 26.7773 506.043 28.3633 506.043 30.3398C506.043 32.3555 505.41 34 504.145 35.2734C502.879 36.5391 501.168 37.1719 499.012 37.1719H498.625ZM498.625 26.6133V34.3008H498.789C499.836 34.3008 500.656 33.9492 501.25 33.2461C501.852 32.5352 502.152 31.5977 502.152 30.4336C502.152 29.2695 501.852 28.3438 501.25 27.6562C500.656 26.9609 499.844 26.6133 498.812 26.6133H498.625ZM494.945 34.3008V26.6133H494.734C493.719 26.6133 492.91 26.9609 492.309 27.6562C491.715 28.3516 491.418 29.2773 491.418 30.4336C491.418 31.6055 491.711 32.543 492.297 33.2461C492.891 33.9492 493.711 34.3008 494.758 34.3008H494.945Z" fill="black"/>
<path d="M522.508 39.293C520.102 39.293 518.141 38.5117 516.625 36.9492C515.109 35.3789 514.352 33.3359 514.352 30.8203C514.352 28.1641 515.121 26.0156 516.66 24.375C518.199 22.7344 520.238 21.9141 522.777 21.9141C525.176 21.9141 527.113 22.6992 528.59 24.2695C530.074 25.8398 530.816 27.9102 530.816 30.4805C530.816 33.1211 530.047 35.25 528.508 36.8672C526.977 38.4844 524.977 39.293 522.508 39.293ZM522.672 25.1719C521.344 25.1719 520.289 25.6719 519.508 26.6719C518.727 27.6641 518.336 28.9805 518.336 30.6211C518.336 32.2852 518.727 33.6016 519.508 34.5703C520.289 35.5391 521.312 36.0234 522.578 36.0234C523.883 36.0234 524.918 35.5547 525.684 34.6172C526.449 33.6719 526.832 32.3633 526.832 30.6914C526.832 28.9492 526.461 27.5938 525.719 26.625C524.977 25.6562 523.961 25.1719 522.672 25.1719Z" fill="black"/>
<path d="M554.219 39H549.438L544.539 31.6992C544.445 31.5586 544.297 31.25 544.094 30.7734H544.035V39H540.25V22.1953H544.035V30.1406H544.094C544.188 29.9219 544.344 29.6094 544.562 29.2031L549.203 22.1953H553.715L547.855 30.2109L554.219 39Z" fill="black"/>
<path d="M559.621 33.2109V39H555.836V22.1953H561.766C566 22.1953 568.117 23.9805 568.117 27.5508C568.117 29.2383 567.508 30.6055 566.289 31.6523C565.078 32.6914 563.457 33.2109 561.426 33.2109H559.621ZM559.621 25.1016V30.3398H561.109C563.125 30.3398 564.133 29.457 564.133 27.6914C564.133 25.9648 563.125 25.1016 561.109 25.1016H559.621Z" fill="black"/>
<path d="M580.656 39H570.578V22.1953H580.27V25.2773H574.363V29.0156H579.859V32.0859H574.363V35.9297H580.656V39Z" fill="black"/>
<path d="M599.816 43.582H596.488V39H585.824V43.582H582.543V35.9062H584.102C586.273 31.9766 587.473 27.4062 587.699 22.1953H597.426V35.9062H599.816V43.582ZM593.629 35.9062V25.3477H590.77C590.684 26.9023 590.387 28.6523 589.879 30.5977C589.371 32.543 588.742 34.3125 587.992 35.9062H593.629Z" fill="black"/>
<path d="M617.734 39H614.16V29.7656C614.16 28.7031 614.199 27.7969 614.277 27.0469H614.207C614.043 27.3672 613.762 27.832 613.363 28.4414L606.426 39H602.617V22.1953H606.191V31.4883C606.191 32.6367 606.16 33.4062 606.098 33.7969H606.145C606.184 33.7031 606.473 33.2461 607.012 32.4258L613.68 22.1953H617.734V39Z" fill="black"/>
<path d="M633.402 25.2773H628.609V39H624.812V25.2773H620.043V22.1953H633.402V25.2773Z" fill="black"/>
<path d="M650.207 39H646.41V32.1562H639.449V39H635.664V22.1953H639.449V28.8984H646.41V22.1953H650.207V39Z" fill="black"/>
<path d="M661.164 39.293C658.758 39.293 656.797 38.5117 655.281 36.9492C653.766 35.3789 653.008 33.3359 653.008 30.8203C653.008 28.1641 653.777 26.0156 655.316 24.375C656.855 22.7344 658.895 21.9141 661.434 21.9141C663.832 21.9141 665.77 22.6992 667.246 24.2695C668.73 25.8398 669.473 27.9102 669.473 30.4805C669.473 33.1211 668.703 35.25 667.164 36.8672C665.633 38.4844 663.633 39.293 661.164 39.293ZM661.328 25.1719C660 25.1719 658.945 25.6719 658.164 26.6719C657.383 27.6641 656.992 28.9805 656.992 30.6211C656.992 32.2852 657.383 33.6016 658.164 34.5703C658.945 35.5391 659.969 36.0234 661.234 36.0234C662.539 36.0234 663.574 35.5547 664.34 34.6172C665.105 33.6719 665.488 32.3633 665.488 30.6914C665.488 28.9492 665.117 27.5938 664.375 26.625C663.633 25.6562 662.617 25.1719 661.328 25.1719Z" fill="black"/>
<path d="M678.438 33.8906H672.027V31.3008H678.438V33.8906Z" fill="black"/>
<path d="M129.906 69.1719V71.0938H126.227V69.1719H125.828C123.68 69.1719 121.973 68.5391 120.707 67.2734C119.449 66 118.82 64.3555 118.82 62.3398C118.82 60.3711 119.438 58.7891 120.672 57.5938C121.914 56.3906 123.617 55.7891 125.781 55.7891H126.227V53.8672H129.906V55.7891H130.34C132.52 55.7891 134.227 56.3867 135.461 57.582C136.703 58.7773 137.324 60.3633 137.324 62.3398C137.324 64.3555 136.691 66 135.426 67.2734C134.16 68.5391 132.449 69.1719 130.293 69.1719H129.906ZM129.906 58.6133V66.3008H130.07C131.117 66.3008 131.938 65.9492 132.531 65.2461C133.133 64.5352 133.434 63.5977 133.434 62.4336C133.434 61.2695 133.133 60.3438 132.531 59.6562C131.938 58.9609 131.125 58.6133 130.094 58.6133H129.906ZM126.227 66.3008V58.6133H126.016C125 58.6133 124.191 58.9609 123.59 59.6562C122.996 60.3516 122.699 61.2773 122.699 62.4336C122.699 63.6055 122.992 64.543 123.578 65.2461C124.172 65.9492 124.992 66.3008 126.039 66.3008H126.227Z" fill="black"/>
<path d="M155.172 71H151.598V61.7656C151.598 60.7031 151.637 59.7969 151.715 59.0469H151.645C151.48 59.3672 151.199 59.832 150.801 60.4414L143.863 71H140.055V54.1953H143.629V63.4883C143.629 64.6367 143.598 65.4062 143.535 65.7969H143.582C143.621 65.7031 143.91 65.2461 144.449 64.4258L151.117 54.1953H155.172V71Z" fill="black"/>
<path d="M173.582 71H169.785V64.1562H162.824V71H159.039V54.1953H162.824V60.8984H169.785V54.1953H173.582V71Z" fill="black"/>
<path d="M192.215 71H188.09L186.895 67.2617H180.918L179.734 71H175.633L181.75 54.1953H186.238L192.215 71ZM186.027 64.3555L184.223 58.707C184.09 58.2852 183.996 57.7812 183.941 57.1953H183.848C183.809 57.6875 183.711 58.1758 183.555 58.6602L181.727 64.3555H186.027Z" fill="black"/>
<path d="M208.855 71H205.059V64.1562H198.098V71H194.312V54.1953H198.098V60.8984H205.059V54.1953H208.855V71Z" fill="black"/>
<path d="M224.758 70.4023C223.531 70.9961 221.93 71.293 219.953 71.293C217.375 71.293 215.348 70.5352 213.871 69.0195C212.395 67.5039 211.656 65.4844 211.656 62.9609C211.656 60.2734 212.484 58.0938 214.141 56.4219C215.805 54.75 217.961 53.9141 220.609 53.9141C222.25 53.9141 223.633 54.1211 224.758 54.5352V58.1797C223.633 57.5078 222.352 57.1719 220.914 57.1719C219.336 57.1719 218.062 57.668 217.094 58.6602C216.125 59.6523 215.641 60.9961 215.641 62.6914C215.641 64.3164 216.098 65.6133 217.012 66.582C217.926 67.543 219.156 68.0234 220.703 68.0234C222.18 68.0234 223.531 67.6641 224.758 66.9453V70.4023Z" fill="black"/>
<path d="M234.273 71.293C231.867 71.293 229.906 70.5117 228.391 68.9492C226.875 67.3789 226.117 65.3359 226.117 62.8203C226.117 60.1641 226.887 58.0156 228.426 56.375C229.965 54.7344 232.004 53.9141 234.543 53.9141C236.941 53.9141 238.879 54.6992 240.355 56.2695C241.84 57.8398 242.582 59.9102 242.582 62.4805C242.582 65.1211 241.812 67.25 240.273 68.8672C238.742 70.4844 236.742 71.293 234.273 71.293ZM234.438 57.1719C233.109 57.1719 232.055 57.6719 231.273 58.6719C230.492 59.6641 230.102 60.9805 230.102 62.6211C230.102 64.2852 230.492 65.6016 231.273 66.5703C232.055 67.5391 233.078 68.0234 234.344 68.0234C235.648 68.0234 236.684 67.5547 237.449 66.6172C238.215 65.6719 238.598 64.3633 238.598 62.6914C238.598 60.9492 238.227 59.5938 237.484 58.625C236.742 57.6562 235.727 57.1719 234.438 57.1719Z" fill="black"/>
<path d="M245.383 71V54.1953H251.5C253.375 54.1953 254.816 54.5391 255.824 55.2266C256.832 55.9141 257.336 56.8828 257.336 58.1328C257.336 59.0391 257.027 59.832 256.41 60.5117C255.801 61.1914 255.02 61.6641 254.066 61.9297V61.9766C255.262 62.125 256.215 62.5664 256.926 63.3008C257.645 64.0352 258.004 64.9297 258.004 65.9844C258.004 67.5234 257.453 68.7461 256.352 69.6523C255.25 70.5508 253.746 71 251.84 71H245.383ZM249.168 56.9844V60.9688H250.832C251.613 60.9688 252.227 60.7812 252.672 60.4062C253.125 60.0234 253.352 59.5 253.352 58.8359C253.352 57.6016 252.43 56.9844 250.586 56.9844H249.168ZM249.168 63.7812V68.2109H251.219C252.094 68.2109 252.777 68.0078 253.27 67.6016C253.77 67.1953 254.02 66.6406 254.02 65.9375C254.02 65.2656 253.773 64.7383 253.281 64.3555C252.797 63.9727 252.117 63.7812 251.242 63.7812H249.168Z" fill="black"/>
<path d="M278.488 71H274.727V54.1953H278.488V71ZM260.781 71V54.1953H264.566V60.4883H267.039C271.094 60.4883 273.121 62.1367 273.121 65.4336C273.121 67.1914 272.574 68.5586 271.48 69.5352C270.387 70.5117 268.844 71 266.852 71H260.781ZM264.566 63.3477V68.1172H266.277C268.184 68.1172 269.137 67.3086 269.137 65.6914C269.137 64.1289 268.207 63.3477 266.348 63.3477H264.566Z" fill="black"/>
<path d="M296.066 71H291.578L288.684 65.5273C288.574 65.3242 288.461 64.9492 288.344 64.4023H288.297C288.242 64.6602 288.113 65.0508 287.91 65.5742L285.004 71H280.492L285.848 62.5977L280.949 54.1953H285.555L287.957 59.2344C288.145 59.6328 288.312 60.1055 288.461 60.6523H288.508C288.602 60.3242 288.777 59.8359 289.035 59.1875L291.707 54.1953H295.926L290.887 62.5273L296.066 71Z" fill="black"/>
<path d="M317.641 54.1953L312.379 65.7148C311.395 67.8711 310.465 69.3398 309.59 70.1211C308.715 70.9023 307.605 71.293 306.262 71.293C305.371 71.293 304.645 71.1641 304.082 70.9062V67.4492C304.723 67.8633 305.387 68.0703 306.074 68.0703C307.02 68.0703 307.852 67.3047 308.57 65.7734L303.051 54.1953H307.363L310.152 60.9219C310.316 61.3281 310.445 61.7852 310.539 62.293H310.562C310.648 61.8711 310.781 61.4297 310.961 60.9688L313.656 54.1953H317.641Z" fill="black"/>
<path d="M332.957 71H329.16V64.332C327.59 65.1914 326 65.6211 324.391 65.6211C320.914 65.6211 319.176 63.9492 319.176 60.6055V54.1953H322.949V60.2773C322.949 61.7305 323.75 62.457 325.352 62.457C326.617 62.457 327.887 62.0742 329.16 61.3086V54.1953H332.957V71Z" fill="black"/>
<path d="M340.691 65.2109V71H336.906V54.1953H342.836C347.07 54.1953 349.188 55.9805 349.188 59.5508C349.188 61.2383 348.578 62.6055 347.359 63.6523C346.148 64.6914 344.527 65.2109 342.496 65.2109H340.691ZM340.691 57.1016V62.3398H342.18C344.195 62.3398 345.203 61.457 345.203 59.6914C345.203 57.9648 344.195 57.1016 342.18 57.1016H340.691Z" fill="black"/>
<path d="M361.727 71H351.648V54.1953H361.34V57.2773H355.434V61.0156H360.93V64.0859H355.434V67.9297H361.727V71Z" fill="black"/>
<path d="M386.617 71H381.906L376.949 63.7578C376.816 63.5703 376.664 63.2891 376.492 62.9141H376.445V71H372.742V62.9141H372.695C372.617 63.0938 372.465 63.375 372.238 63.7578L367.27 71H362.57L368.98 62.2344L363.051 54.1953H367.562L372.238 61.2266C372.434 61.5234 372.586 61.7812 372.695 62H372.742V54.1953H376.445V62H376.492C376.602 61.7734 376.754 61.5156 376.949 61.2266L381.625 54.1953H386.137L380.207 62.2344L386.617 71Z" fill="black"/>
<path d="M405.473 75.582H402.145V71H391.48V75.582H388.199V67.9062H389.758C391.93 63.9766 393.129 59.4062 393.355 54.1953H403.082V67.9062H405.473V75.582ZM399.285 67.9062V57.3477H396.426C396.34 58.9023 396.043 60.6523 395.535 62.5977C395.027 64.543 394.398 66.3125 393.648 67.9062H399.285Z" fill="black"/>
<path d="M418.352 71H408.273V54.1953H417.965V57.2773H412.059V61.0156H417.555V64.0859H412.059V67.9297H418.352V71Z" fill="black"/>
<path d="M435.59 71H431.793V64.1562H424.832V71H421.047V54.1953H424.832V60.8984H431.793V54.1953H435.59V71Z" fill="black"/>
<path d="M454.562 71H450.988V61.7656C450.988 60.7031 451.027 59.7969 451.105 59.0469H451.035C450.871 59.3672 450.59 59.832 450.191 60.4414L443.254 71H439.445V54.1953H443.02V63.4883C443.02 64.6367 442.988 65.4062 442.926 65.7969H442.973C443.012 65.7031 443.301 65.2461 443.84 64.4258L450.508 54.1953H454.562V71Z" fill="black"/>
<path d="M469.949 71H466.152V64.4727H465.145C464.207 64.4727 463.441 65.1836 462.848 66.6055L461.02 71H456.648L459.004 65.9844C459.668 64.5703 460.539 63.6914 461.617 63.3477V63.3008C459.141 62.7148 457.902 61.2812 457.902 59C457.902 57.4922 458.449 56.3164 459.543 55.4727C460.637 54.6211 462.176 54.1953 464.16 54.1953H469.949V71ZM466.152 61.6367V57.0781H464.57C462.797 57.0781 461.91 57.8164 461.91 59.293C461.91 59.9961 462.148 60.5625 462.625 60.9922C463.109 61.4219 463.758 61.6367 464.57 61.6367H466.152Z" fill="black"/>
<path d="M487.527 71H483.039L480.145 65.5273C480.035 65.3242 479.922 64.9492 479.805 64.4023H479.758C479.703 64.6602 479.574 65.0508 479.371 65.5742L476.465 71H471.953L477.309 62.5977L472.41 54.1953H477.016L479.418 59.2344C479.605 59.6328 479.773 60.1055 479.922 60.6523H479.969C480.062 60.3242 480.238 59.8359 480.496 59.1875L483.168 54.1953H487.387L482.348 62.5273L487.527 71Z" fill="black"/>
</svg>
