<svg width="490" height="490" viewBox="0 0 490 490" fill="none" xmlns="http://www.w3.org/2000/svg">
<path fill-rule="evenodd" clip-rule="evenodd" d="M490 0V490H0V478.989L422 479.869C422.192 478.55 422.401 477.256 422.628 475.986L56 396.905L57 390.899L423.645 470.981C424.131 468.857 424.675 466.807 425.278 464.827L78 321.828L81 316.823L426.875 460.122C427.752 457.793 428.725 455.575 429.797 453.463L117 246.752L121 241.747L432.338 448.958C433.703 446.774 435.197 444.721 436.826 442.795L172 177.681L176 173.677L440.629 438.762C442.302 437.169 444.091 435.682 446 434.296L239 121.624L244 117.62L450.346 431.44L455.5 428.437L307.5 84.0858L312 81.5833L461 426.367C462.921 425.643 464.92 424.975 467 424.364L388 57.0582L394 55.5567L472 423.038C474.556 422.429 477.221 421.894 480 421.43V0H490ZM480 479.99L432 479.89C433.167 464.574 444.4 433.542 480 431.941V479.99Z" fill="#0188CC"/>
</svg>
